<svg height="40px" viewBox="0 -82 480 479" width="40px" xmlns="http://www.w3.org/2000/svg"><path d="m440 .5h-400c-22.082031.027344-39.9726562 17.917969-40 40v112c.0273438 22.082031 17.917969 39.972656 40 40h400c22.082031-.027344 39.972656-17.917969 40-40v-112c-.027344-22.082031-17.917969-39.972656-40-40zm-384 16h368v16h-368zm32 160h-32v-16h32zm48 0h-32v-16h32zm48 0h-32v-16h32zm48 0h-32v-16h32zm48 0h-32v-16h32zm48 0h-32v-16h32zm48 0h-32v-16h32zm48 0h-32v-16h32zm0-32h-368v-16h368zm40 8c0 13.253906-10.746094 24-24 24v-56c0-4.417969-3.582031-8-8-8h-384c-4.417969 0-8 3.582031-8 8v56c-13.253906 0-24-10.746094-24-24v-112c0-13.253906 10.746094-24 24-24v24c0 4.417969 3.582031 8 8 8h384c4.417969 0 8-3.582031 8-8v-24c13.253906 0 24 10.746094 24 24zm0 0"/><path d="m416 80.5h16v16h-16zm0 0"/><path d="m384 80.5h16v16h-16zm0 0"/><path d="m216 80.5h48v16h-48zm0 0"/><path d="m279.449219 219.421875-14.898438-5.84375-5.734375 14.648437c-5.464844 13.957032-2.816406 29.789063 6.886719 41.210938 6.164063 6.980469 7.929687 16.8125 4.585937 25.503906l-5.738281 14.636719 14.898438 5.84375 5.734375-14.648437c5.464844-13.957032 2.816406-29.789063-6.886719-41.210938-6.164063-6.980469-7.929687-16.8125-4.585937-25.503906zm0 0"/><path d="m343.449219 219.421875-14.898438-5.84375-5.734375 14.648437c-5.464844 13.957032-2.816406 29.789063 6.886719 41.210938 6.164063 6.980469 7.929687 16.8125 4.585937 25.503906l-5.738281 14.636719 14.898438 5.84375 5.734375-14.648437c5.464844-13.957032 2.816406-29.789063-6.886719-41.210938-6.164063-6.980469-7.929687-16.8125-4.585937-25.503906zm0 0"/><path d="m215.449219 219.421875-14.898438-5.84375-5.734375 14.648437c-5.464844 13.957032-2.816406 29.789063 6.886719 41.210938 6.164063 6.980469 7.929687 16.8125 4.585937 25.503906l-5.738281 14.636719 14.898438 5.84375 5.734375-14.648437c5.464844-13.957032 2.816406-29.789063-6.886719-41.210938-6.164063-6.980469-7.929687-16.8125-4.585937-25.503906zm0 0"/><path d="m151.449219 219.421875-14.898438-5.84375-5.734375 14.648437c-5.464844 13.957032-2.816406 29.789063 6.886719 41.210938 6.164063 6.980469 7.929687 16.8125 4.585937 25.503906l-5.738281 14.636719 14.898438 5.84375 5.734375-14.648437c5.464844-13.957032 2.816406-29.789063-6.886719-41.210938-6.164063-6.980469-7.929687-16.8125-4.585937-25.503906zm0 0"/></svg>
