<?xml version="1.0" encoding="iso-8859-1"?>
<!-- Generator: Adobe Illustrator 19.0.0, SVG Export Plug-In . SVG Version: 6.00 Build 0)  -->
<svg version="1.1" id="Capa_1" xmlns="http://www.w3.org/2000/svg" xmlns:xlink="http://www.w3.org/1999/xlink" x="0px" y="0px"
	 viewBox="0 0 512.001 512.001" style="enable-background:new 0 0 512.001 512.001;" xml:space="preserve" width="40px" height="40px">
<g>
	<g>
		<g>
			<path d="M502.001,298.969H388.998V146.874h5.495c5.522,0,10-4.477,10-10c0-5.523-4.478-10-10-10h-5.642
				C385.64,56.372,327.283,0.002,256.001,0H256c-0.001,0-0.001,0-0.001,0c-71.283,0-129.641,56.371-132.852,126.874h-5.642
				c-5.522,0-10,4.477-10,10c0,5.523,4.478,10,10,10H123V254.59c0,0.003,0,0.007,0,0.01v44.369H10c-5.523,0-10,4.477-10,10v133.03
				v60.002c0,5.523,4.477,10,10,10h492.001c5.522,0,10-4.477,10-10v-60.002v-133.03
				C512.001,303.446,507.523,298.969,502.001,298.969z M388.998,318.969h41.504v113.03h-41.504V318.969z M266,20.447
				c55.631,4.903,99.817,50.283,102.831,106.427h-8.822c-0.003,0-0.007,0-0.01,0h-25.537C329.944,91.233,301.64,62.928,266,58.41
				V20.447z M266,78.619c24.596,4.211,44.043,23.659,48.253,48.255H266V78.619z M266,197.1c0-0.004,0-0.007,0-0.011v-50.216h69.861
				l-19.017,19.017c-3.905,3.905-3.905,10.237,0,14.143c1.953,1.953,4.512,2.929,7.071,2.929c2.56,0,5.118-0.976,7.071-2.929
				l33.159-33.159h4.851v152.095h-88.853l69.803-69.802c3.905-3.905,3.905-10.237,0-14.142c-3.904-3.905-10.236-3.905-14.143,0
				L266,284.826V197.1z M368.998,318.969v113.03h-41.499v-113.03H368.998z M266,318.969h41.499v113.03H266V318.969z M246,20.447
				V58.41c-35.641,4.518-63.945,32.824-68.464,68.464h-34.369C146.181,70.73,190.368,25.35,246,20.447z M246,78.618v48.256h-48.255
				C201.955,102.277,221.403,82.829,246,78.618z M143,258.737l33.157-33.158c3.905-3.905,3.905-10.237,0-14.142
				c-3.906-3.905-10.236-3.905-14.143,0L143,230.452v-83.578h103v46.079l-48.259,48.259c-3.905,3.905-3.905,10.237,0,14.142
				c1.953,1.953,4.512,2.929,7.071,2.929s5.118-0.977,7.071-2.929L246,221.237v77.731H143V258.737z M246,318.969v113.03h-41.501
				v-113.03H246z M143,318.969h41.499v113.03H143V318.969z M81.499,318.969H123v113.03H81.499V318.969z M20,318.969h41.499v113.03
				H20V318.969z M20,492.001v-40.002h113h245.998h113.003v40.002H20z M492.001,431.999h-41.499v-113.03h41.499V431.999z"/>
			<path d="M196.684,205.055c3.882-3.928,3.846-10.259-0.082-14.142c-3.929-3.883-10.26-3.847-14.143,0.082l-0.167,0.169
				c-3.882,3.928-3.846,10.259,0.082,14.142c1.949,1.927,4.49,2.888,7.03,2.888c2.578,0,5.156-0.991,7.112-2.97L196.684,205.055z"/>
			<path d="M296.528,186.205l-0.167,0.167c-3.905,3.905-3.905,10.237,0,14.143c1.953,1.953,4.512,2.929,7.071,2.929
				s5.118-0.976,7.071-2.929l0.167-0.167c3.905-3.905,3.905-10.237,0-14.143C306.765,182.3,300.435,182.3,296.528,186.205z"/>
		</g>
	</g>
</g>
<g>
</g>
<g>
</g>
<g>
</g>
<g>
</g>
<g>
</g>
<g>
</g>
<g>
</g>
<g>
</g>
<g>
</g>
<g>
</g>
<g>
</g>
<g>
</g>
<g>
</g>
<g>
</g>
<g>
</g>
</svg>
