<svg height="40px" viewBox="-65 0 456 456.06792" width="40px" xmlns="http://www.w3.org/2000/svg"><path d="m325.035156 141c0-4.417969-3.582031-8-8-8h-309c-4.417968 0-7.9999998 3.582031-7.9999998 8 .0195313 55.320312 28.1796878 106.828125 74.7343748 136.707031l-30.382812 102.292969h-11.851563c-4.417968 0-8 3.582031-8 8s3.582032 8 8 8h7.097656l-14.769531 49.722656c-1.257812 4.234375 1.15625 8.6875 5.394531 9.945313 4.234376 1.257812 8.6875-1.15625 9.945313-5.390625l16.121094-54.277344h212.375l16.167969 54.28125c.796874 2.765625 3.011718 4.886719 5.808593 5.5625 2.792969.675781 5.734375-.199219 7.707031-2.292969 1.96875-2.09375 2.664063-5.085937 1.816407-7.832031l-14.804688-49.71875h7.140625c4.417969 0 8-3.582031 8-8s-3.582031-8-8-8h-11.902344l-30.445312-102.222656c46.617188-29.863282 74.824219-81.410156 74.847656-136.777344zm-61.101562 239h-202.855469l27.949219-94.101562c46.15625 23.449218 100.726562 23.46875 146.902344.058593zm-24.976563-114.054688c-.199219.042969-.398437.085938-.601562.144532-1.445313.429687-2.738281 1.261718-3.726563 2.402344-44.90625 25.445312-99.902344 25.332031-144.703125-.292969-.941406-.945313-2.105469-1.640625-3.386719-2.019531-.015624-.003907-.035156-.007813-.054687-.011719-41.289063-25.097657-67.558594-68.925781-70.234375-117.167969h292.566406c-2.664062 48.089844-28.777344 91.804688-69.859375 116.945312zm0 0"/><path d="m132 59.722656c-3.371094 3.230469-8.464844 8.113282-8.464844 17.277344s5.09375 14.046875 8.464844 17.277344c2.910156 2.789062 3.535156 3.589844 3.535156 5.726562 0 4.417969 3.582032 8 8 8 4.417969 0 8-3.582031 8-8 0-9.164062-5.09375-14.046875-8.464844-17.277344-2.910156-2.789062-3.535156-3.589843-3.535156-5.726562s.625-2.9375 3.535156-5.726562c3.371094-3.230469 8.464844-8.113282 8.464844-17.273438s-5.09375-14.046875-8.464844-17.273438c-2.910156-2.792968-3.535156-3.59375-3.535156-5.726562s.621094-2.933594 3.535156-5.722656c3.371094-3.230469 8.464844-8.113282 8.464844-17.277344 0-4.417969-3.582031-8-8-8-4.417968 0-8 3.582031-8 8 0 2.132812-.625 2.933594-3.535156 5.722656-3.371094 3.230469-8.464844 8.113282-8.464844 17.277344s5.09375 14.046875 8.464844 17.273438c2.910156 2.789062 3.535156 3.589843 3.535156 5.726562s-.625 2.933594-3.535156 5.722656zm0 0"/><path d="m92 59.722656c-3.371094 3.230469-8.464844 8.113282-8.464844 17.277344s5.09375 14.046875 8.464844 17.277344c2.910156 2.789062 3.535156 3.589844 3.535156 5.726562 0 4.417969 3.582032 8 8 8 4.417969 0 8-3.582031 8-8 0-9.164062-5.09375-14.046875-8.464844-17.277344-2.910156-2.789062-3.535156-3.589843-3.535156-5.726562s.625-2.9375 3.535156-5.726562c3.371094-3.230469 8.464844-8.113282 8.464844-17.273438s-5.09375-14.046875-8.464844-17.273438c-2.910156-2.792968-3.535156-3.59375-3.535156-5.726562s.621094-2.933594 3.535156-5.722656c3.371094-3.230469 8.464844-8.113282 8.464844-17.277344 0-4.417969-3.582031-8-8-8-4.417968 0-8 3.582031-8 8 0 2.132812-.625 2.933594-3.535156 5.722656-3.371094 3.230469-8.464844 8.113282-8.464844 17.277344s5.09375 14.046875 8.464844 17.273438c2.910156 2.789062 3.535156 3.589843 3.535156 5.726562s-.625 2.933594-3.535156 5.722656zm0 0"/><path d="m172 59.722656c-3.371094 3.230469-8.464844 8.113282-8.464844 17.277344s5.09375 14.046875 8.464844 17.277344c2.910156 2.789062 3.535156 3.589844 3.535156 5.726562 0 4.417969 3.582032 8 8 8 4.417969 0 8-3.582031 8-8 0-9.164062-5.09375-14.046875-8.464844-17.277344-2.910156-2.789062-3.535156-3.589843-3.535156-5.726562s.625-2.9375 3.535156-5.726562c3.371094-3.230469 8.464844-8.113282 8.464844-17.273438s-5.09375-14.046875-8.464844-17.273438c-2.910156-2.792968-3.535156-3.59375-3.535156-5.726562s.621094-2.933594 3.535156-5.722656c3.371094-3.230469 8.464844-8.113282 8.464844-17.277344 0-4.417969-3.582031-8-8-8-4.417968 0-8 3.582031-8 8 0 2.132812-.625 2.933594-3.535156 5.722656-3.371094 3.230469-8.464844 8.113282-8.464844 17.277344s5.09375 14.046875 8.464844 17.273438c2.910156 2.789062 3.535156 3.589843 3.535156 5.726562s-.625 2.933594-3.535156 5.722656zm0 0"/><path d="m222 59.722656c-3.371094 3.230469-8.464844 8.113282-8.464844 17.277344s5.09375 14.046875 8.464844 17.277344c2.910156 2.789062 3.535156 3.589844 3.535156 5.726562 0 4.417969 3.582032 8 8 8 4.417969 0 8-3.582031 8-8 0-9.164062-5.09375-14.046875-8.464844-17.277344-2.910156-2.789062-3.535156-3.589843-3.535156-5.726562s.625-2.9375 3.535156-5.726562c3.371094-3.230469 8.464844-8.113282 8.464844-17.273438s-5.09375-14.046875-8.464844-17.273438c-2.910156-2.792968-3.535156-3.59375-3.535156-5.726562s.621094-2.933594 3.535156-5.722656c3.371094-3.230469 8.464844-8.113282 8.464844-17.277344 0-4.417969-3.582031-8-8-8-4.417968 0-8 3.582031-8 8 0 2.132812-.625 2.933594-3.535156 5.722656-3.371094 3.230469-8.464844 8.113282-8.464844 17.277344s5.09375 14.046875 8.464844 17.273438c2.910156 2.789062 3.535156 3.589843 3.535156 5.726562s-.625 2.933594-3.535156 5.722656zm0 0"/><path d="m185.3125 164h-45.558594c-11.875 0-21.5 9.625-21.5 21.5s9.625 21.5 21.5 21.5h45.558594c11.875 0 21.5-9.625 21.5-21.5s-9.625-21.5-21.5-21.5zm0 27h-45.558594c-3.039062 0-5.5-2.460938-5.5-5.5s2.460938-5.5 5.5-5.5h45.558594c3.039062 0 5.5 2.460938 5.5 5.5s-2.460938 5.5-5.5 5.5zm0 0"/></svg>