<svg height="40px" viewBox="0 -59 512 512" width="40px" xmlns="http://www.w3.org/2000/svg"><path d="m433.332031 158.003906h58.667969c11.046875 0 20-8.953125 20-20v-78.667968c0-11.042969-8.953125-20-20-20h-73.945312l-74.445313-37.21875c-9.878906-4.941407-21.890625-.9375-26.832031 8.941406-4.9375 9.878906-.933594 21.894531 8.945312 26.832031l67.609375 33.808594v145.503906c0 32.054687-26.078125 58.136719-58.132812 58.136719h-59.199219v-137.335938c0-11.046875-8.953125-20-20-20h-78.667969c-97.78125 0-177.332031 79.550782-177.332031 177.332032 0 11.046874 8.953125 20 20 20h39.007812c.179688 43.410156 35.542969 78.667968 78.992188 78.667968s78.808594-35.257812 78.992188-78.667968c119.613281-.574219 120.726562 1.367187 137.046874-1.820313-.828124 44.417969 35.050782 80.488281 78.960938 80.488281 43.5625 0 79-35.441406 79-79 0-43.902344-36.058594-79.792968-80.488281-78.960937 3.027343-15.519531 1.335937-22.570313 1.820312-78.039063zm-256 0h58.667969v117.332032h-194.539062c9.714843-66.277344 66.9375-117.332032 135.871093-117.332032zm-39.332031 196c-21.394531 0-38.8125-17.316406-38.992188-38.667968h77.984376c-.179688 21.351562-17.597657 38.667968-38.992188 38.667968zm334-236h-38.667969v-38.667968h38.667969zm0 197c0 21.503906-17.496094 39-39 39s-39-17.496094-39-39 17.496094-39 39-39 39 17.496094 39 39zm0 0"/></svg>