<?xml version="1.0" encoding="iso-8859-1"?>
<!-- Generator: Adobe Illustrator 19.0.0, SVG Export Plug-In . SVG Version: 6.00 Build 0)  -->
<svg version="1.1" id="Capa_1" xmlns="http://www.w3.org/2000/svg" xmlns:xlink="http://www.w3.org/1999/xlink" x="0px" y="0px"
	 viewBox="0 0 512 512" style="enable-background:new 0 0 512 512;" xml:space="preserve" width="40px" height="40px">
<g>
	<g>
		<path d="M504.478,13.289c-41.2,0-74.719,33.518-74.719,74.719v0.274c-19.04-21.304-41.982-39.152-67.302-52.206
			C329.724,19.2,292.825,10.28,255.749,10.28c-49.468,0-97.68,15.805-137.403,44.777v-5.161h-15.044v77.728
			c0,24.333-19.796,44.129-44.129,44.129c-24.333,0-44.129-19.796-44.129-44.129V49.896H0v77.728
			c0,22.581,12.719,42.242,31.365,52.213c-5.835,20.624-8.799,41.993-8.799,63.626c0,14.547,1.354,29.081,4.012,43.219v182.443
			c0,17.973,14.623,32.595,32.595,32.595s32.596-14.623,32.596-32.595v-59.886c43.513,43.054,102.26,67.409,163.98,67.409
			c47.049,0,92.393-13.949,131.129-40.339c28.776-19.603,52.555-45.077,69.96-74.7v112.532c0,15.209,12.373,27.581,27.581,27.581
			c15.208,0,27.581-12.372,27.581-27.581V298.123v-15.044V13.289H504.478z M37.61,243.463c0-19.808,2.652-39.377,7.877-58.281
			c2.017,0.479,4.074,0.854,6.164,1.12v63.68H37.717C37.653,247.81,37.61,245.638,37.61,243.463z M76.725,469.124
			c0,9.677-7.874,17.551-17.551,17.551c-9.677,0-17.551-7.874-17.551-17.551V265.026h35.103V469.124z M456.838,328.126
			c-34.18,81.132-112.945,133.476-201.089,133.476c-62.91,0-122.508-27.06-163.98-74.316V249.982H66.695v-63.68
			c29.087-3.709,51.651-28.6,51.651-58.679V74.045c38.726-31.438,87.375-48.721,137.403-48.721
			c68.064,0,132.916,32.344,174.01,86.618v186.181h27.079V328.126z M496.956,474.139c0,6.913-5.623,12.537-12.537,12.537
			s-12.537-5.623-12.537-12.537V298.123h25.073V474.139z M496.956,283.079h-40.118h-12.035V88.008
			c0-30.359,22.785-55.495,52.153-59.203V283.079z"/>
	</g>
</g>
<g>
	<g>
		<rect x="34.431" y="49.896" width="15.044" height="86.253"/>
	</g>
</g>
<g>
	<g>
		<rect x="68.872" y="49.896" width="15.044" height="86.253"/>
	</g>
</g>
<g>
	<g>
		<path d="M107.816,243.463h15.044c0-73.276,59.614-132.889,132.889-132.889V95.53C174.178,95.53,107.816,161.892,107.816,243.463z"
			/>
	</g>
</g>
<g>
	<g>
		<path d="M388.639,243.463c0,73.276-59.614,132.889-132.889,132.889v15.044c81.571,0,147.933-66.362,147.933-147.933H388.639z"/>
	</g>
</g>
<g>
	<g>
		<path d="M346.276,197.804c-1.273-14.982-7.862-29.165-18.555-39.936c-10.694-10.773-24.831-17.463-39.803-18.838
			c-17.319-1.589-34.193,3.659-47.483,14.786c-7.357,6.159-15.073,10.473-22.937,12.824c-39.871,11.918-67.235,49.296-66.544,90.898
			c0.809,48.72,39.523,88.914,88.135,91.505c1.719,0.091,3.428,0.137,5.135,0.137c23.94-0.001,46.511-8.981,64.024-25.586
			c18.783-17.806,29.126-41.826,29.126-67.632c0-0.872-0.012-1.739-0.036-2.605c-0.249-8.772,1.378-17.743,4.835-26.666
			C345.743,217.481,347.124,207.762,346.276,197.804z M328.144,221.254c-4.185,10.801-6.152,21.745-5.846,32.529
			c0.021,0.724,0.03,1.449,0.03,2.177c0.002,21.637-8.675,41.779-24.43,56.716c-15.734,14.919-36.335,22.498-58.007,21.344
			c-40.757-2.173-73.216-35.878-73.894-76.733c-0.58-34.89,22.371-66.239,55.81-76.234c9.835-2.94,19.352-8.223,28.286-15.703
			c8.998-7.533,20.137-11.555,31.781-11.555c1.548,0,3.107,0.071,4.669,0.215c23.508,2.158,42.743,21.533,44.743,45.066
			C331.935,206.736,330.879,214.197,328.144,221.254z"/>
	</g>
</g>
<g>
	<g>
		<path d="M244.158,208.449c-26.199,0-47.512,21.313-47.512,47.513c0,26.2,21.313,47.513,47.512,47.513
			c26.199,0,47.513-21.313,47.513-47.513C291.672,229.762,270.356,208.449,244.158,208.449z M244.158,288.43
			c-17.903,0-32.468-14.565-32.468-32.469s14.565-32.469,32.468-32.469c17.904,0,32.469,14.565,32.469,32.469
			S262.062,288.43,244.158,288.43z"/>
	</g>
</g>
<g>
	<g>
		<g>
			<rect x="459.847" y="88.008" width="15.044" height="100.294"/>
			<rect x="459.847" y="203.346" width="15.044" height="15.044"/>
		</g>
	</g>
</g>
<g>
	<g>
		<g>
			<path d="M255.749,55.412c39.803,0,77.865,12.333,110.073,35.667l8.827-12.184c-34.793-25.205-75.908-38.528-118.9-38.528V55.412z
				"/>
			<path d="M386.936,88.533l-9.729,11.474c4.227,3.584,8.344,7.4,12.238,11.34l10.701-10.573
				C395.942,96.521,391.499,92.403,386.936,88.533z"/>
		</g>
	</g>
</g>
<g>
	<g>
		<rect x="236.633" y="248.438" width="15.044" height="15.044"/>
	</g>
</g>
<g>
	<g>
		<g>
			<path d="M116.56,391.357c28.588,26.914,64.092,44.86,102.673,51.901l2.7-14.8c-35.72-6.518-68.591-23.135-95.06-48.055
				L116.56,391.357z"/>
			<path d="M236.244,430.504l-1.555,14.964c6.961,0.723,14.046,1.09,21.06,1.09l0.001-15.044
				C249.254,431.514,242.691,431.174,236.244,430.504z"/>
		</g>
	</g>
</g>
<g>
</g>
<g>
</g>
<g>
</g>
<g>
</g>
<g>
</g>
<g>
</g>
<g>
</g>
<g>
</g>
<g>
</g>
<g>
</g>
<g>
</g>
<g>
</g>
<g>
</g>
<g>
</g>
<g>
</g>
</svg>
