<?xml version="1.0" encoding="iso-8859-1"?>
<!-- Generator: Adobe Illustrator 16.0.0, SVG Export Plug-In . SVG Version: 6.00 Build 0)  -->
<!DOCTYPE svg PUBLIC "-//W3C//DTD SVG 1.1//EN" "http://www.w3.org/Graphics/SVG/1.1/DTD/svg11.dtd">
<svg version="1.1" id="Capa_1" xmlns="http://www.w3.org/2000/svg" xmlns:xlink="http://www.w3.org/1999/xlink" x="0px" y="0px" viewBox="0 0 950 950" style="enable-background:new 0 0 950 950;" xml:space="preserve" width="40px" height="40px">
<g>
	<g>
		<path d="M938.399,107.816H11.601C5.194,107.816,0,112.435,0,118.132v584.875c0,5.697,5.194,10.316,11.601,10.316h330.031h12.52
			h12.519l-4.049,74.092h224.758l-4.049-74.092h12.519h12.52h330.031c6.406,0,11.601-4.619,11.601-10.316V118.132
			C950,112.434,944.806,107.816,938.399,107.816z M902.095,656.12c0,4.877-4.67,8.831-10.431,8.831h-285.94h-12.519h-12.52H369.312
			h-12.519h-12.519H58.336c-5.761,0-10.431-3.954-10.431-8.831V159.858c0-4.877,4.67-8.831,10.431-8.831h833.327
			c5.761,0,10.431,3.954,10.431,8.831L902.095,656.12L902.095,656.12z"/>
		<path d="M639.304,831.867v-13.408c0-5.696-4.619-10.315-10.315-10.315h-15.439H601.03h-12.52H361.488h-12.52h-12.518h-15.438
			c-5.697,0-10.315,4.619-10.315,10.315v13.408c0,5.697,4.619,10.316,10.315,10.316h13.578h280.818h13.578
			C634.685,842.184,639.304,837.564,639.304,831.867z"/>
		<path d="M475,186c-122.601,0-221.989,99.388-221.989,221.989c0,88.289,51.544,164.535,126.18,200.3
			c10.395,4.981,21.241,9.166,32.454,12.5c20.078,5.969,41.34,9.189,63.355,9.189s43.277-3.222,63.355-9.189
			c11.214-3.333,22.061-7.519,32.455-12.5c74.635-35.765,126.179-112.011,126.179-200.3C696.989,285.388,597.601,186,475,186z
			 M659.282,485.827c-2.684,6.342-5.684,12.506-8.977,18.494l-85.147,12.674c-2.904,0.434-6.189,2.973-7.338,5.675l-33.694,79.242
			c-15.945,4.03-32.378,6.066-49.126,6.066s-33.181-2.037-49.126-6.066L392.18,522.67c-1.148-2.702-4.434-5.241-7.338-5.675
			l-85.147-12.674c-3.292-5.987-6.293-12.151-8.977-18.494c-8.001-18.917-12.962-38.749-14.841-59.161l63.315-58.264
			c2.159-1.988,3.452-5.935,2.887-8.815l-16.59-84.411c2.61-2.932,5.303-5.806,8.098-8.601
			c17.879-17.879,38.621-32.005,61.664-42.033l75.111,42.063c2.562,1.435,6.715,1.435,9.275,0l75.111-42.063
			c23.043,10.028,43.785,24.154,61.664,42.033c2.795,2.795,5.487,5.668,8.098,8.601l-16.59,84.411
			c-0.566,2.881,0.726,6.828,2.887,8.815l63.315,58.264C672.244,447.078,667.284,466.91,659.282,485.827z"/>
		<path d="M556.2,378.227l-76.9-55.871c-2.375-1.726-6.226-1.726-8.601,0l-76.9,55.871c-2.375,1.726-3.564,5.388-2.658,8.181
			l29.373,90.401c0.907,2.792,4.023,5.056,6.959,5.056h95.054c2.936,0,6.051-2.263,6.959-5.056l29.373-90.401
			C559.766,383.614,558.576,379.952,556.2,378.227z"/>
	</g>
</g>
<g>
</g>
<g>
</g>
<g>
</g>
<g>
</g>
<g>
</g>
<g>
</g>
<g>
</g>
<g>
</g>
<g>
</g>
<g>
</g>
<g>
</g>
<g>
</g>
<g>
</g>
<g>
</g>
<g>
</g>
</svg>
