<svg height="16px" viewBox="-15 0 409 409.93758" width="16px" xmlns="http://www.w3.org/2000/svg"><path d="m370.636719 322.308594-80.351563-81.4375c-9.167968-9.246094-21.636718-14.460938-34.660156-14.496094h-35.429688c-8.683593-.007812-15.71875-7.042969-15.730468-15.726562 0-2.761719-2.238282-5-5-5-2.761719 0-5 2.238281-5 5 .015625 14.203124 11.527344 25.710937 25.730468 25.726562h35.425782c10.34375.03125 20.25 4.175781 27.535156 11.519531l80.367188 81.4375c7.089843 6.910157 7.890624 18.03125 1.859374 25.882813-3.371093 4.097656-8.3125 6.578125-13.609374 6.835937-5.296876.253907-10.457032-1.738281-14.207032-5.492187l-68.480468-68.476563c-9.113282-9.160156-21.511719-14.296875-34.429688-14.261719h-70.160156c-29.667969-.039062-53.707032-24.082031-53.742188-53.75v-116.796874c.015625-9.683594 7.859375-17.527344 17.539063-17.542969h48.625c9.6875.011719 17.539062 7.863281 17.546875 17.550781v50.117188c0 2.761718 2.238281 5 5 5h62.371094c3.9375.003906 7.695312 1.671874 10.335937 4.589843 2.644531 2.921875 3.933594 6.824219 3.546875 10.742188-.988281 7.320312-7.316406 12.726562-14.699219 12.566406h-117.554687c-2.761719 0-5 2.238281-5 5s2.238281 5 5 5h117.554687c12.519531.128906 23.136719-9.171875 24.65625-21.601563.65625-6.726562-1.558593-13.417968-6.097656-18.425781-4.539063-5.003906-10.984375-7.859375-17.742187-7.859375h-57.371094v-45.125c-.023438-14.050781-10.597656-25.835937-24.5625-27.382812 16.707031-13.820313 20.464844-37.941406 8.75-56.191406-11.714844-18.246094-35.210938-24.875-54.734375-15.4375-19.523438 9.433593-28.929688 31.960937-21.90625 52.480468.894531 2.609375 3.738281 4.003906 6.351562 3.105469 2.613281-.894531 4.003907-3.738281 3.105469-6.351563-4.644531-13.53125-.015625-28.511718 11.453125-37.0625 11.46875-8.554687 27.148437-8.71875 38.792969-.40625 11.644531 8.3125 16.582031 23.191407 12.222656 36.816407-4.363281 13.625-17.023438 22.871093-31.332031 22.875h-24.3125c-15.199219.035156-27.511719 12.351562-27.539063 27.554687v56.773438c-62.167968 13.082031-104.941406 70.308594-99.882812 133.636718 5.054687 63.328126 56.367187 113.042969 119.824218 116.097657 63.453126 3.050781 119.300782-41.511719 130.410157-104.0625.480469-2.71875-1.332031-5.3125-4.054688-5.792969-2.71875-.480469-5.3125 1.335938-5.792969 4.054688-10.191406 57.335937-61.21875 98.296874-119.402343 95.847656-58.183594-2.453125-105.582031-47.5625-110.914063-105.550782-5.332031-57.992187 33.050782-110.988281 89.8125-124.003906v49.785156c.039063 35.1875 28.554688 63.707032 63.742188 63.75h70.160156c10.265625-.027343 20.117188 4.054688 27.359375 11.332032l68.480469 68.480468c5.40625 5.398438 12.734375 8.433594 20.378906 8.433594.441406 0 .886719-.007812 1.332031-.027344 8.113281-.394531 15.6875-4.183593 20.871094-10.433593 9.277344-11.820313 8.230469-28.714844-2.441406-39.296875zm0 0"/></svg>