<svg height="40px" viewBox="0 0 512 512" width="40px" xmlns="http://www.w3.org/2000/svg"><path d="m497 120h-147.460938l-48.539062-24.269531v-8.300781c17.460938-6.191407 30-22.871094 30-42.429688 0-24.8125-20.1875-45-45-45s-45 20.1875-45 45c0 8.285156 6.714844 15 15 15s15-6.714844 15-15c0-8.269531 6.730469-15 15-15s15 6.730469 15 15-6.730469 15-15 15c-8.285156 0-15 6.714844-15 15v20.730469l-48.539062 24.269531h-147.460938c-8.285156 0-15 6.714844-15 15v121c0 8.285156 6.714844 15 15 15h45v31h-75c-24.8125 0-45 20.1875-45 45 0 11.515625 4.355469 22.03125 11.496094 30-7.140625 7.96875-11.496094 18.484375-11.496094 30s4.355469 22.03125 11.496094 30c-7.140625 7.96875-11.496094 18.484375-11.496094 30 0 24.8125 20.1875 45 45 45h392c8.285156 0 15-6.714844 15-15v-226h45c8.285156 0 15-6.714844 15-15v-121c0-8.285156-6.714844-15-15-15zm-211 1.769531 44.121094 22.0625c-4.160156 20.882813-22.675782 37.167969-44.121094 37.167969s-39.960938-16.285156-44.121094-37.167969zm-241 210.230469h241c8.269531 0 15 6.730469 15 15s-6.730469 15-15 15h-241c-8.269531 0-15-6.730469-15-15s6.730469-15 15-15zm0 90c-8.269531 0-15-6.730469-15-15s6.730469-15 15-15h241c8.269531 0 15 6.730469 15 15s-6.730469 15-15 15zm-15 45c0-8.269531 6.730469-15 15-15h241c8.269531 0 15 6.730469 15 15s-6.730469 15-15 15h-241c-8.269531 0-15-6.730469-15-15zm452-226h-30v-15c0-8.285156-6.714844-15-15-15s-15 6.714844-15 15v256h-93.578125c1.664063-4.695312 2.578125-9.742188 2.578125-15 0-11.515625-4.355469-22.03125-11.496094-30 7.144532-7.96875 11.496094-18.484375 11.496094-30s-4.355469-22.03125-11.496094-30c7.144532-7.96875 11.496094-18.484375 11.496094-30 0-24.8125-20.1875-45-45-45h-136v-76c0-8.285156-6.714844-15-15-15s-15 6.714844-15 15v15h-30v-91h122.484375c6.769531 33.886719 36.664063 61 73.515625 61 36.832031 0 66.742188-27.09375 73.515625-61h122.484375zm0 0"/></svg>