<svg height="40px" viewBox="-17 -23 557.33331 557" width="40px" xmlns="http://www.w3.org/2000/svg"><path d="m511.25-.25h-500c-6.210938 0-11.25 5.039062-11.25 11.25v487.5c0 6.210938 5.039062 11.25 11.25 11.25h500c6.210938 0 11.25-5.039062 11.25-11.25v-487.5c0-6.210938-5.039062-11.25-11.25-11.25zm-148.75 160v327.5h-90v-327.5zm-112.5 327.5h-90v-327.5h90zm250 0h-115v-338.75c0-6.210938-5.039062-11.25-11.25-11.25h-225c-6.210938 0-11.25 5.039062-11.25 11.25v338.75h-115v-465h477.5zm0 0"/><path d="m434.828125 412.636719c2.117187 2.152343 5.007813 3.363281 8.023437 3.363281 3.015626 0 5.90625-1.210938 8.023438-3.363281l28.375-28.867188c4.351562-4.433593 4.289062-11.554687-.144531-15.910156-4.425781-4.355469-11.550781-4.292969-15.90625.140625l-9.097657 9.25v-47.5c0-6.210938-5.039062-11.25-11.25-11.25-6.214843 0-11.25 5.039062-11.25 11.25v47.5l-9.101562-9.25c-2.808594-2.910156-6.960938-4.082031-10.875-3.078125-3.914062 1-6.996094 4.023437-8.066406 7.917969-1.066406 3.902344.039062 8.070312 2.894531 10.933594zm0 0"/><path d="m422.5 228.996094 9.097656-9.246094v47.5c0 6.210938 5.039063 11.25 11.25 11.25 6.214844 0 11.25-5.039062 11.25-11.25v-47.5l9.097656 9.246094c4.351563 4.433594 11.476563 4.503906 15.910157.148437 4.433593-4.355469 4.496093-11.480469.144531-15.914062l-28.375-28.867188c-2.117188-2.152343-5.007812-3.363281-8.023438-3.363281-3.015624 0-5.90625 1.210938-8.023437 3.363281l-28.378906 28.867188c-2.855469 2.855469-3.957031 7.03125-2.890625 10.929687 1.070312 3.894532 4.152344 6.917969 8.066406 7.917969 3.917969 1 8.066406-.171875 10.875-3.082031zm0 0"/><path d="m148.75 122.25h225c6.210938 0 11.25-5.039062 11.25-11.25v-60c0-6.210938-5.039062-11.25-11.25-11.25h-225c-6.210938 0-11.25 5.039062-11.25 11.25v60c0 6.210938 5.039062 11.25 11.25 11.25zm11.25-60h202.5v37.5h-202.5zm0 0"/></svg>
