<svg height="40px" viewBox="0 -65 512 512" width="40px" xmlns="http://www.w3.org/2000/svg"><path d="m475.207031 308.261719h-13.425781v-154.359375c12.351562-4.726563 21.148438-16.691406 21.148438-30.683594v-34.910156c17-6.675782 29.070312-23.238282 29.070312-42.578125 0-25.214844-20.515625-45.730469-45.730469-45.730469h-420.539062c-25.214844 0-45.730469 20.515625-45.730469 45.730469 0 19.339843 12.070312 35.902343 29.070312 42.578125v34.910156c0 13.988281 8.796876 25.957031 21.148438 30.683594v154.359375h-13.425781c-20.285157 0-36.792969 16.507812-36.792969 36.796875 0 20.285156 16.507812 36.792968 36.792969 36.792968h438.414062c20.285157 0 36.792969-16.507812 36.792969-36.792968 0-20.289063-16.507812-36.796875-36.792969-36.796875zm-118.804687 0v-152.199219h90.378906v152.199219zm-185.804688-216.796875h170.804688v216.796875h-26.492188c5.273438-7.339844 8.460938-16.816407 8.460938-27.152344 0-12.96875-5.011719-24.582031-12.867188-32.320313 21.628906-64.785156-13.957031-102.117187-37.433594-118.742187-6.296874-4.460937-14.476562-5.027344-21.351562-1.476563-6.871094 3.542969-11.144531 10.535157-11.15625 18.246094-.019531 15.265625-3.152344 27.242188-5.921875 34.855469-.777344-.824219-1.570313-1.660156-2.351563-2.484375-3.691406-3.894531-8.859374-5.773438-14.1875-5.144531-5.371093.632812-10.011718 3.6875-12.730468 8.382812-15.363282 26.523438-10.894532 52.566407-5.542969 68.121094-6.886719 7.683594-11.195313 18.539063-11.195313 30.558594 0 10.339843 3.1875 19.816406 8.460938 27.15625h-26.496094zm53.886719 216.796875c-11.5 0-20.851563-12.183594-20.851563-27.15625 0-14.972657 9.351563-27.152344 20.851563-27.152344h35.636719c-5.273438 7.339844-8.460938 16.816406-8.460938 27.15625 0 10.335937 3.1875 19.8125 8.460938 27.152344zm-4.632813-119.320313s11.550782 11.144532 11.550782 11.144532c1.601562 1.695312 3.902344 2.554687 6.21875 2.3125 2.320312-.238282 4.398437-1.539063 5.621094-3.523438.5-.8125 12.273437-20.265625 12.320312-52.035156.003906-3.046875 2.125-4.472656 3.035156-4.941406.914063-.472657 3.308594-1.375 5.804688.390624 23.914062 16.9375 48.394531 47.550782 32.972656 98.300782-3.136719-1.058594-6.441406-1.636719-9.859375-1.636719h-63.027344c-4.144531 0-8.125.84375-11.832031 2.367187-8.167969-30.953124 7.195312-52.378906 7.195312-52.378906zm46.808594 92.167969c0-14.976563 9.355469-27.15625 20.855469-27.15625 11.496094 0 20.851563 12.183594 20.851563 27.15625s-9.351563 27.152344-20.851563 27.152344-20.855469-12.183594-20.855469-27.152344zm-74.574218 42.152344v43.589843h-21.488282v-43.589843zm15 0h22.820312v43.589843h-22.820312zm37.820312 0h22.1875v43.589843h-22.1875zm37.1875 0h22.820312v43.589843h-22.820312zm37.820312 0h21.488282v43.589843h-21.488282zm-304.914062-277.53125c0-16.945313 13.785156-30.730469 30.730469-30.730469h420.539062c16.945313 0 30.730469 13.785156 30.730469 30.730469 0 16.945312-13.785156 30.734375-30.730469 30.734375h-37.355469c-4.144531 0-7.5 3.355468-7.5 7.5 0 4.140625 3.355469 7.5 7.5 7.5 0 0 38.460938-.023438 39.015626-.042969v31.796875c0 9.839844-8.003907 17.84375-17.84375 17.84375h-93.683594v-49.597656h40.304687c4.144531 0 7.5-3.359375 7.5-7.5 0-4.144532-3.355469-7.5-7.5-7.5h-350.976562c-16.945313 0-30.730469-13.789063-30.730469-30.734375zm29.070312 77.488281v-31.796875c.550782.019531 111.527344.042969 111.527344.042969v49.597656h-93.683594c-9.839843 0-17.84375-8.003906-17.84375-17.84375zm-29.070312 221.839844c0-12.019532 9.777344-21.796875 21.792969-21.796875h20.921875c7.84375 0 7.503906-7.5 7.503906-7.5v-159.699219h90.378906v152.199219h-66.257812c-4.140625 0-7.5 3.355469-7.5 7.5s3.359375 7.5 7.5 7.5h66.257812v43.589843h-118.804687c-12.015625 0-21.792969-9.777343-21.792969-21.792968zm460.207031 21.792968h-118.804687v-43.589843h118.804687c12.015625 0 21.792969 9.777343 21.792969 21.796875 0 12.015625-9.777344 21.792968-21.792969 21.792968zm0 0"/></svg>
