<svg height="40px" viewBox="0 -49 512 512" width="40px" xmlns="http://www.w3.org/2000/svg"><path d="m504.5 293.550781c-13.605469 0-20.800781 2.316407-27.148438 4.363281-6.070312 1.953126-11.308593 3.636719-22.554687 3.636719-11.25 0-16.488281-1.6875-22.554687-3.636719-6.351563-2.046874-13.546876-4.363281-27.152344-4.363281-13.601563 0-20.800782 2.316407-27.148438 4.363281-6.0625 1.953126-11.304687 3.636719-22.550781 3.636719s-16.484375-1.6875-22.550781-3.636719c-6.351563-2.046874-13.546875-4.363281-27.148438-4.363281-13.601562 0-20.796875 2.316407-27.148437 4.363281-6.0625 1.953126-11.304688 3.636719-22.550781 3.636719-11.246094 0-16.484376-1.6875-22.546876-3.636719-6.351562-2.046874-13.546874-4.363281-27.148437-4.363281s-20.800781 2.316407-27.148437 4.363281c-6.0625 1.953126-11.304688 3.636719-22.550782 3.636719s-16.484375-1.6875-22.550781-3.636719c-6.351563-2.046874-13.546875-4.363281-27.148437-4.363281-13.601563 0-20.796876 2.316407-27.148438 4.363281-6.0625 1.953126-11.304688 3.636719-22.550781 3.636719-11.246094 0-16.484375-1.6875-22.550781-3.636719-6.347657-2.046874-13.542969-4.363281-27.144532-4.363281h-7.503906v120.351563h512v-120.351563zm-7.5 105.351563h-482v-90.046875c6.453125.570312 10.519531 1.878906 15.050781 3.335937 6.347657 2.042969 13.546875 4.363282 27.148438 4.363282 13.601562 0 20.796875-2.320313 27.148437-4.363282 6.0625-1.953125 11.304688-3.636718 22.550782-3.636718 11.246093 0 16.484374 1.683593 22.550781 3.636718 6.347656 2.042969 13.542969 4.363282 27.144531 4.363282 13.605469 0 20.800781-2.320313 27.148438-4.363282 6.066406-1.953125 11.304687-3.636718 22.550781-3.636718 11.246093 0 16.484375 1.683593 22.550781 3.636718 6.347656 2.042969 13.546875 4.363282 27.148438 4.363282 13.601562 0 20.796874-2.320313 27.144531-4.363282 6.066406-1.953125 11.304687-3.636718 22.550781-3.636718 11.25 0 16.488281 1.683593 22.554688 3.636718 6.347656 2.042969 13.542968 4.363282 27.148437 4.363282 13.601563 0 20.796875-2.320313 27.144531-4.363282 6.066406-1.953125 11.304688-3.636718 22.550782-3.636718 11.25 0 16.488281 1.683593 22.554687 3.636718 6.351563 2.042969 13.546875 4.363282 27.152344 4.363282 13.601562 0 20.800781-2.320313 27.148437-4.363282 4.53125-1.457031 8.601563-2.765625 15.054688-3.335937v90.046875zm0 0"/><path d="m382.074219 0-157.191407 157.65625h-12.984374l-.199219-74.894531c0-21.816407-17.75-39.566407-39.566407-39.566407-21.816406 0-39.566406 17.75-39.566406 39.566407v29.960937l11.546875 11.546875-11.28125 11.28125v64.441407h93.917969l14.484375-14.480469v-22.992188l.941406-.941406c4.496094 2.648437 9.636719 4.058594 14.996094 4.058594 7.910156 0 15.351563-3.082031 20.945313-8.675781 5.597656-5.59375 8.679687-13.035157 8.679687-20.949219 0-.574219-.019531-1.144531-.050781-1.710938.566406.03125 1.140625.046875 1.714844.046875 7.910156 0 15.351562-3.082031 20.945312-8.675781 5.597656-5.59375 8.679688-13.035156 8.679688-20.949219 0-.574218-.019532-1.144531-.050782-1.714844.570313.03125 1.140625.050782 1.714844.050782 7.914062 0 15.351562-3.082032 20.949219-8.675782 5.59375-5.597656 8.675781-13.035156 8.675781-20.949218 0-.574219-.015625-1.144532-.050781-1.714844.570312.03125 1.140625.050781 1.714843.050781 6.75 0 13.160157-2.246093 18.371094-6.378906v129.625h15v-175.675781l8.5-8.5zm-234.507813 82.761719c0-13.546875 11.019532-24.566407 24.566406-24.566407 13.542969 0 24.5625 11.019532 24.5625 24.566407v39.492187h-33.386718l-15.742188-15.742187zm49.132813 59.03125v15.863281h-21.527344v-20.402344h16.988281zm29.535156 37.507812-5.695313 5.691407h-72.707031v-43.226563l4.511719-4.511719h4.148438l3.679687 3.675782v31.726562h66.0625zm41.277344-32.945312c-3.773438 3.773437-9.113281 5.046875-13.945313 3.828125l17.773438-17.773438c1.222656 4.832032-.054688 10.171875-3.828125 13.945313zm31.289062-31.289063c-3.773437 3.773438-9.109375 5.046875-13.941406 3.828125l17.773437-17.773437c1.21875 4.832031-.058593 10.167968-3.832031 13.945312zm31.292969-31.292968c-3.773438 3.773437-9.113281 5.050781-13.945312 3.828124l17.773437-17.773437c1.21875 4.832031-.054687 10.171875-3.828125 13.945313zm31.289062-31.289063c-2.761718 2.761719-6.433593 4.28125-10.34375 4.28125-1.230468 0-2.441406-.152344-3.609374-.445313l17.789062-17.789062c.296875 1.164062.449219 2.375.449219 3.609375 0 3.90625-1.523438 7.582031-4.285157 10.34375zm0 0"/><path d="m289.386719 212.011719-66.152344 66.152343 10.605469 10.605469 98.816406-98.816406-26.792969-26.792969-17.441406 17.445313c-3.632813-1.730469-7.695313-2.699219-11.980469-2.699219-15.40625 0-27.941406 12.535156-27.941406 27.941406v14.675782l-55.488281 55.488281 10.605469 10.605469 85.042968-85.042969c.46875 1.339843.726563 2.777343.726563 4.273437zm-13.273438-19.101563-12.609375 12.609375c.171875-6.875 5.734375-12.4375 12.609375-12.609375zm29.75-8.539062 5.582031 5.582031-8.152343 8.152344c-.789063-2.738281-1.988281-5.308594-3.527344-7.632813zm0 0"/><path d="m474.027344 290.921875 37.3125-83.304687h-189.453125v15h166.296875l-17.816406 39.785156h-137.566407v15h130.847657l-3.308594 7.390625zm0 0"/><path d="m53.238281 285.125-27.996093-62.507812h214.269531v-15h-237.421875l37.460937 83.640624zm0 0"/><path d="m454.792969 341.550781c-17.527344 0-27.515625-3.214843-34.808594-5.5625-5.199219-1.671875-7.574219-2.4375-14.894531-2.4375l-.574219.003907-.105469-15 .679688-.003907c9.679687 0 13.792968 1.324219 19.488281 3.160157 7.054687 2.269531 15.042969 4.839843 30.21875 4.839843 11.355469 0 18.464844-1.5 22.820313-2.628906l3.765624 14.519531c-8.191406 2.121094-16.640624 3.109375-26.589843 3.109375zm-99.402344 0v-15c5.082031 0 9.636719-.285156 13.933594-.875l2.042969 14.859375c-4.980469.683594-10.207032 1.015625-15.976563 1.015625zm26.640625-3.125-3.773438-14.519531c2.691407-.699219 5.058594-1.460938 7.34375-2.195312 2.5625-.824219 4.777344-1.539063 7.371094-2.089844l3.113282 14.675781c-1.84375.390625-3.625.964844-5.882813 1.691406-2.375.765625-5.066406 1.628907-8.171875 2.4375zm0 0"/><path d="m156.597656 374.550781c-13.605468 0-20.800781-2.316406-27.148437-4.359375-6.066407-1.953125-11.304688-3.640625-22.550781-3.640625l-.644532.003907-.097656-15 .742188-.003907c13.601562 0 20.796874 2.316407 27.148437 4.363281 6.0625 1.953126 11.304687 3.636719 22.550781 3.636719s16.484375-1.6875 22.550782-3.636719c6.347656-2.046874 13.546874-4.363281 27.148437-4.363281v15c-11.246094 0-16.484375 1.6875-22.550781 3.640625-6.351563 2.042969-13.546875 4.359375-27.148438 4.359375zm-99.398437 0v-15c5.210937 0 9.488281-.359375 13.457031-1.136719l2.878906 14.722657c-4.875.953125-10.21875 1.414062-16.335937 1.414062zm26.816406-4.253906-4.597656-14.277344.332031-.105469c4.179688-1.347656 8.921875-2.875 15.5625-3.703124l1.859375 14.886718c-5.246094.652344-8.925781 1.839844-12.824219 3.09375zm0 0"/><path d="m468.890625 247.617188h-56.089844v-15h56.089844zm-66.089844 0h-15v-15h15zm-25 0h-15v-15h15zm0 0"/></svg>