<svg height="40px" viewBox="-46 0 512 512" width="40px" xmlns="http://www.w3.org/2000/svg"><path d="m110 256c0 5.523438-4.476562 10-10 10s-10-4.476562-10-10 4.476562-10 10-10 10 4.476562 10 10zm0 0"/><path d="m0 30v412c0 13.035156 8.359375 24.152344 20 28.28125v11.71875c0 16.542969 13.457031 30 30 30h320c16.542969 0 30-13.457031 30-30v-11.71875c11.640625-4.128906 20-15.246094 20-28.28125v-412c0-16.542969-13.457031-30-30-30-16.730469 0-344.964844 0-360 0-16.542969 0-30 13.457031-30 30zm370 462h-320c-5.515625 0-10-4.484375-10-10v-10h340v10c0 5.515625-4.484375 10-10 10zm30-462v412c0 5.515625-4.484375 10-10 10h-150v-432h150c5.515625 0 10 4.484375 10 10zm-180 422h-20v-432h20zm-200-422c0-5.515625 4.484375-10 10-10h150v432h-150c-5.515625 0-10-4.484375-10-10zm0 0"/><path d="m50 326h100c5.523438 0 10-4.476562 10-10v-220c0-5.523438-4.476562-10-10-10h-100c-5.523438 0-10 4.476562-10 10v220c0 5.523438 4.476562 10 10 10zm10-220h80v200h-80zm0 0"/><path d="m270 286h100c5.523438 0 10-4.476562 10-10 0-6.59375 0-112.914062 0-120 0-5.523438-4.476562-10-10-10h-100c-5.523438 0-10 4.476562-10 10v120c0 5.523438 4.476562 10 10 10zm10-20v-60h30v30c0 5.523438 4.476562 10 10 10s10-4.476562 10-10v-30h30v60zm0-100h80v20h-80zm0 0"/><path d="m370 306h-100c-5.523438 0-10 4.476562-10 10s4.476562 10 10 10h100c5.523438 0 10-4.476562 10-10s-4.476562-10-10-10zm0 0"/><path d="m100 146c-5.523438 0-10 4.476562-10 10v60c0 5.523438 4.476562 10 10 10s10-4.476562 10-10v-60c0-5.523438-4.476562-10-10-10zm0 0"/></svg>
