<svg height="40px" viewBox="-36 0 480 480" width="40px" xmlns="http://www.w3.org/2000/svg"><path d="m96 216c2.121094 0 4.15625-.84375 5.65625-2.34375l8-8c3.03125-3.140625 2.988281-8.128906-.097656-11.214844-3.085938-3.085937-8.074219-3.128906-11.214844-.097656l-8 8c-2.285156 2.289062-2.972656 5.730469-1.734375 8.71875s4.15625 4.9375 7.390625 4.9375zm0 0"/><path d="m64 240c2.121094 0 4.15625-.84375 5.65625-2.34375l8-8c3.03125-3.140625 2.988281-8.128906-.097656-11.214844-3.085938-3.085937-8.074219-3.128906-11.214844-.097656l-8 8c-2.285156 2.289062-2.972656 5.730469-1.734375 8.71875s4.15625 4.9375 7.390625 4.9375zm0 0"/><path d="m96 256c2.121094 0 4.15625-.84375 5.65625-2.34375l8-8c3.03125-3.140625 2.988281-8.128906-.097656-11.214844-3.085938-3.085937-8.074219-3.128906-11.214844-.097656l-8 8c-2.285156 2.289062-2.972656 5.730469-1.734375 8.71875s4.15625 4.9375 7.390625 4.9375zm0 0"/><path d="m64 280c2.121094 0 4.15625-.84375 5.65625-2.34375l8-8c3.03125-3.140625 2.988281-8.128906-.097656-11.214844-3.085938-3.085937-8.074219-3.128906-11.214844-.097656l-8 8c-2.285156 2.289062-2.972656 5.730469-1.734375 8.71875s4.15625 4.9375 7.390625 4.9375zm0 0"/><path d="m128 224c2.121094 0 4.15625-.84375 5.65625-2.34375l8-8c3.03125-3.140625 2.988281-8.128906-.097656-11.214844-3.085938-3.085937-8.074219-3.128906-11.214844-.097656l-8 8c-2.285156 2.289062-2.972656 5.730469-1.734375 8.71875s4.15625 4.9375 7.390625 4.9375zm0 0"/><path d="m400 144h-8v-136c0-4.417969-3.582031-8-8-8h-48c-4.417969 0-8 3.582031-8 8v136h-8c-4.417969 0-8 3.582031-8 8v24h-64c-22.082031.027344-39.972656 17.917969-40 40v48c.027344 22.082031 17.917969 39.972656 40 40h104c30.914062-.035156 55.964844-25.085938 56-56v-96c0-4.417969-3.582031-8-8-8zm-56-128h32v128h-32zm-16 144h64v16h-64zm24 128h-104c-13.253906 0-24-10.746094-24-24v-48c0-13.253906 10.746094-24 24-24h144v24h-72c-4.417969 0-8 3.582031-8 8s3.582031 8 8 8h72v16h-128c-4.417969 0-8 3.582031-8 8s3.582031 8 8 8h124.609375c-6.355469 14.558594-20.722656 23.980469-36.609375 24zm0 0"/><path d="m288 232h8c4.417969 0 8-3.582031 8-8s-3.582031-8-8-8h-8c-4.417969 0-8 3.582031-8 8s3.582031 8 8 8zm0 0"/><path d="m200 320c-11.199219 0-22.238281.464844-33.160156 1.167969.742187-3 1.128906-6.078125 1.160156-9.167969v-3.769531c15.453125-16.238281 24.050781-37.8125 24-60.230469 0-48.601562-39.398438-88-88-88s-88 39.398438-88 88c-.046875 22.414062 8.546875 43.984375 24 60.222656v3.777344c.035156 12.5 5.945312 24.261719 15.953125 31.753906-36.242187 14.644532-55.953125 34.207032-55.953125 56.246094 0 44.855469 87.847656 80 200 80s200-35.144531 200-80-87.847656-80-200-80zm-104 32h16v64h-16zm-16.367188-16c-10.039062-.152344-18.917968-6.535156-22.265624-16h93.265624c-3.402343 9.582031-12.464843 15.988281-22.632812 16 0 0-47.824219-.046875-48.367188 0zm24.367188-160c30.535156-.03125 57.761719 19.21875 67.90625 48.019531 10.148438 28.796875 1.007812 60.863281-22.800781 79.980469h-90.203125c-17.050782-13.578125-26.960938-34.203125-26.902344-56 .042969-39.746094 32.253906-71.957031 72-72zm96 288c-108.433594 0-184-33.726562-184-64 0-17.601562 23.894531-35.359375 64-47.808594v79.808594h48v-80c11.746094-.03125 22.875-5.257812 30.398438-14.273438 13.601562-1.132812 27.570312-1.726562 41.601562-1.726562 108.433594 0 184 33.726562 184 64s-75.566406 64-184 64zm0 0"/></svg>