<svg height="40px" viewBox="0 0 512 512" width="40px" xmlns="http://www.w3.org/2000/svg"><path d="m511.996094 442.203125-.007813-99.964844c0-3.582031-2.535156-6.667969-6.054687-7.355469-7.6875-1.511718-29.496094-4.472656-45.054688-4.472656-1.878906 0-3.757812.019532-5.632812.0625-4.140625.09375-7.425782 3.527344-7.332032 7.667969.09375 4.082031 3.433594 7.332031 7.496094 7.332031.058594 0 .113282 0 .171875-.003906 1.765625-.039062 3.53125-.058594 5.296875-.058594 11.074219 0 26.460938 1.710938 36.109375 3.164063l.007813 85.191406c-30.390625-4.179687-136.402344-17.601563-244.390625-17.601563-38.148438 0-89.617188 2.988282-152.972657 8.875-4.125.382813-7.15625 4.039063-6.773437 8.160157.382813 4.125 4.039063 7.160156 8.160156 6.777343 62.898438-5.847656 113.898438-8.8125 151.585938-8.8125 109.75 0 217.492187 13.992188 244.390625 17.742188l.003906 38.671875v9.421875h-482v-47.945312c9.6875-1.152344 29.34375-3.425782 54.09375-5.957032 4.121094-.421875 7.117188-4.105468 6.695312-8.226562-.421874-4.121094-4.101562-7.121094-8.226562-6.695313-23.40625 2.394531-42.300781 4.5625-52.5625 5.773438v-83.769531c13.445312-1.988282 42.894531-4.769532 62.507812-4.769532 43.710938 0 90.886719 12.984375 131.28125 29.246094 39.101563 15.742188 82.199219 15.65625 121.355469-.25 32.910157-13.375 64.664063-22.25 94.382813-26.375 4.101562-.570312 6.964844-4.359375 6.394531-8.460938-.570313-4.101562-4.359375-6.964843-8.457031-6.398437-30.949219 4.296875-63.910156 13.496094-97.96875 27.339844-34.757813 14.117187-72.734375 15.085937-112.121094-.578125.242188-52.242188-2.851562-112.992188-12.242188-163.9375 3.828126-3.636719 6.214844-8.769532 6.214844-14.453125v-9.734375c73.089844-22.367188 112.828125-18.351563 120.160156-17.292969 5.847657.875 10.800782-4.238281 9.875-9.945313-1.011718-6.503906-4.941406-22.714843-19.640624-32.808593-10.996094-7.554688-25.269532-9.773438-42.457032-6.605469 17.996094-9.625 29.414063-13.125 32.75-14.03125 5.628906-1.585938 8.089844-8.15625 5.015625-13.015625-3.496093-5.566406-13.515625-18.886719-30.988281-22.328125-13.820312-2.71875-28.632812 1.472656-44.039062 12.464844 12.328124-18.890625 21.652343-28.304688 24.671874-31.132813 4.238282-3.949219 3.519532-10.921875-1.589843-13.914062-5.683594-3.277344-20.75-10.347657-37.78125-5.226563-13.535157 4.070313-24.710938 14.765625-33.222657 31.792969-3.5 7-6.667968 15.238281-9.507812 23.996094-3.050781-9.386719-6.234375-17.410157-9.523438-23.996094-8.507812-17.023437-19.679687-27.722656-33.214843-31.792969-17.03125-5.121094-32.09375 1.949219-37.824219 5.253906-5.125 3-5.726562 10.054688-1.558594 13.875 2.511719 2.351563 11.964844 11.765626 24.59375 31.082032-15.367187-10.9375-30.148437-15.109375-43.933594-12.402344-17.464843 3.429688-27.503906 16.753906-31 22.308594-3.09375 4.890625-.644531 11.464844 5.078126 13.058594 3.300781.898437 14.703124 4.394531 32.683593 14.011718-17.179687-3.164062-31.449219-.953125-42.445312 6.589844-14.691407 10.078125-18.640625 26.304688-19.667969 32.855469-.875 5.835937 4.191406 10.773437 9.84375 9.917969 5.421875-.777344 25.921875-2.839844 62.175781 3.28125.421875.074218.839844.105468 1.257813.105468 3.589844 0 6.765625-2.589844 7.382812-6.25.691406-4.085937-2.058594-7.953125-6.144531-8.644531-27.261719-4.605469-46.480469-4.789063-57.488281-4.195313 1.886718-4.859374 5.242187-10.664062 11.128906-14.703124 8.097656-5.554688 19.476562-6.792969 33.824219-3.6875 23.410156 5.066406 55.390625 21.085937 75.671875 32.136718-2.113282 1.050782-4.015625 2.464844-5.621094 4.164063-8.699219-2.621094-17.304688-4.984375-25.644531-7.042969-4.023438-.996094-8.085938 1.457031-9.078125 5.480469-.996094 4.019531 1.457031 8.085937 5.480468 9.078125 7.734376 1.910156 15.707032 4.09375 23.777344 6.503906v10.792969c0 6.734375 3.351563 12.699219 8.476563 16.3125-1.71875 43.871093-5.632813 97.589843-13.226563 140.738281-21.445312-4.886719-44.34375-8.183594-67.089844-8.183594-23.746093 0-62.097656 3.871094-71.769531 6.207032-3.367187.816406-5.738281 3.828124-5.738281 7.292968v160.589844c0 4.140625 3.359375 7.5 7.5 7.5h497c4.144531 0 7.5-3.359375 7.5-7.5v-62.09375c0-.066406 0-.136719-.003906-.203125zm-324.117188-276.492187c.058594.019531.113282.042968.175782.058593 1.917968.679688 3.292968 2.511719 3.292968 4.660157v11.113281c0 2.71875-2.207031 4.945312-4.941406 4.945312h-17.113281c-2.726563 0-4.945313-2.21875-4.945313-4.945312v-11.113281c0-2.582032 2.003906-4.746094 4.59375-4.929688.140625 0 .277344-.003906.417969-.011719 18.644531-.089843 17.839844.011719 18.519531.222657zm-1.992187 35.777343c1.285156 7.199219 2.429687 14.519531 3.453125 21.882813h-17.699219c.4375-7.941406.78125-15.308594 1.050781-21.882813zm-15.140625 36.882813h20.503906c1.078125 9.269531 1.976562 18.539062 2.722656 27.667968h-25.292968c.8125-9.542968 1.492187-18.84375 2.066406-27.667968zm-3.433594 42.667968h27.761719c.621093 9.523438 1.089843 18.800782 1.433593 27.671876h-32.285156c1.167969-9.203126 2.191406-18.492188 3.089844-27.671876zm140.9375-156.910156c5.886719 4.042969 9.234375 9.835938 11.117188 14.699219-17.648438-.917969-57.082032.152344-117.734376 18.738281-1.269531-1.5-2.757812-2.808594-4.410156-3.882812-.011718-.085938-.027344-.175782-.039062-.269532 20.207031-11.085937 53.191406-27.777343 77.234375-32.984374 14.351562-3.109376 25.734375-1.863282 33.832031 3.699218zm-62.625-43.589844c11.953125-8.558593 22.898438-11.933593 32.539062-10.039062 6.980469 1.375 12.335938 5.355469 15.980469 9.0625-14.871093 5.46875-43.773437 18.835938-83.210937 49.710938-2.582032 1.289062-5.09375 2.570312-7.523438 3.824218 3.355469-8.007812 6.695313-15.433594 9.980469-22.300781 12.230469-13.511719 23.078125-23.691406 32.234375-30.257813zm-43.105469-24.066406c6.589844-13.179687 14.707031-21.300781 24.125-24.132812 6.8125-2.050782 13.40625-1.03125 18.339844.53125-27.746094 31.101562-50.058594 78.535156-64.546875 117.617187h-2.816406c3.867187-26.066406 12.886718-69.980469 24.898437-94.015625zm-69.984375-24.132812c9.417969 2.832031 17.53125 10.953125 24.117188 24.132812 5.351562 10.714844 10.472656 25.90625 15.226562 45.175782-1.046875 4.390624-2.019531 8.734374-2.910156 12.945312-3.371094-4.015625-6.925781-8.132812-10.59375-12.226562-18.101562-37.371094-34.691406-58.925782-44.164062-69.5 4.941406-1.5625 11.523437-2.574219 18.324218-.527344zm-51.511718 38.160156c9.632812-1.894531 20.578124 1.484375 32.53125 10.039062 17.242187 12.34375 37.246093 35.1875 51.683593 53.144532-.25 1.386718-.484375 2.730468-.710937 4.035156-5.191406-2.800781-10.6875-5.671875-16.34375-8.503906-39.410156-30.839844-68.308594-44.195313-83.148438-49.65625 3.648438-3.703125 9.007813-7.6875 15.988282-9.058594zm81.15625 253.210938h34.8125c.289062 11.230468.394531 21.546874.394531 30.535156-11.617188-4.203125-24.503907-8.382813-38.195313-12.039063 1.074219-6.027343 2.066406-12.21875 2.988282-18.496093zm0 0"/><path d="m404.230469 105c28.949219 0 52.5-23.550781 52.5-52.5s-23.550781-52.5-52.5-52.5-52.5 23.550781-52.5 52.5 23.550781 52.5 52.5 52.5zm0-90c20.679687 0 37.5 16.820312 37.5 37.5s-16.820313 37.5-37.5 37.5c-20.675781 0-37.5-16.820312-37.5-37.5s16.824219-37.5 37.5-37.5zm0 0"/><path d="m61.988281 463.273438c-2.210937 3.503906-1.167969 8.132812 2.335938 10.347656 12.050781 7.613281 27.625 7.609375 39.671875 0 7.1875-4.539063 16.472656-4.539063 23.65625 0 .019531.011718.035156.019531.050781.03125 12.027344 7.570312 27.550781 7.570312 39.574219 0 .019531-.011719.035156-.019532.054687-.03125 7.183594-4.539063 16.46875-4.539063 23.652344-.003906.015625.011718.03125.023437.046875.03125 6.015625 3.789062 12.90625 5.679687 19.796875 5.679687 6.902344 0 13.808594-1.898437 19.832031-5.707031 3.503906-2.210938 4.550782-6.84375 2.339844-10.34375-2.210938-3.503906-6.84375-4.550782-10.347656-2.335938-7.183594 4.535156-16.46875 4.535156-23.652344 0-.015625-.011718-.027344-.019531-.042969-.03125-12.027343-7.574218-27.554687-7.574218-39.585937-.007812-.015625.011718-.035156.023437-.054688.035156-7.183594 4.539062-16.46875 4.539062-23.652344 0-.019531-.011719-.035156-.023438-.054687-.035156-12.042969-7.578125-27.589844-7.5625-39.621094.035156-7.183593 4.539062-16.46875 4.539062-23.65625 0-3.503906-2.210938-8.132812-1.164062-10.34375 2.335938zm0 0"/><path d="m321.011719 472.683594c7.183593-4.539063 16.46875-4.539063 23.65625 0 .015625.011718.035156.023437.054687.035156 12.023438 7.566406 27.542969 7.566406 39.570313 0 .019531-.011719.035156-.023438.050781-.035156 7.1875-4.535156 16.472656-4.535156 23.660156.003906 6.027344 3.804688 12.933594 5.707031 19.835938 5.707031 6.90625 0 13.8125-1.902343 19.835937-5.707031 3.503907-2.210938 4.546875-6.84375 2.335938-10.34375-2.210938-3.503906-6.84375-4.550781-10.347657-2.335938-7.179687 4.535157-16.464843 4.535157-23.65625-.003906-12.03125-7.601562-27.578124-7.613281-39.621093-.03125-.019531.007813-.035157.019532-.054688.03125-7.183593 4.539063-16.46875 4.535156-23.652343 0-.019532-.011718-.039063-.023437-.058594-.035156-12.042969-7.578125-27.585938-7.566406-39.621094.035156-7.183594 4.535156-16.46875 4.535156-23.652344 0-3.5-2.214844-8.132812-1.167968-10.347656 2.335938-2.210938 3.5-1.164062 8.132812 2.335938 10.34375 12.054687 7.613281 27.625 7.613281 39.675781 0zm0 0"/></svg>