<svg height="40px" viewBox="-2 0 408 408" width="40px" xmlns="http://www.w3.org/2000/svg"><path d="m40.011719 375h11.988281v23c0 5.523438 4.476562 10 10 10s10-4.476562 10-10v-23h260v23c0 5.523438 4.476562 10 10 10s10-4.476562 10-10v-23h11.988281c10.574219.058594 20.738281-4.097656 28.246094-11.542969 7.503906-7.449219 11.738281-17.578125 11.765625-28.152343v-295.0625c-.011719-22.128907-17.878906-40.105469-40.011719-40.242188h-323.976562c-22.132813.136719-40.0000002 18.113281-40.011719 40.242188v295.0625c.0273438 10.574218 4.261719 20.703124 11.765625 28.152343 7.507813 7.445313 17.671875 11.601563 28.246094 11.542969zm323.976562-20h-323.976562c-5.273438.0625-10.351563-1.980469-14.109375-5.679688-3.757813-3.695312-5.882813-8.742187-5.902344-14.015624v-225.304688h364v225.304688c-.019531 5.273437-2.144531 10.320312-5.902344 14.015624-3.757812 3.699219-8.835937 5.742188-14.109375 5.679688zm-323.976562-335h323.976562c11.089844.125 20.015625 9.152344 20.011719 20.242188v49.757812h-364v-49.757812c0-11.089844 8.921875-20.117188 20.011719-20.242188zm0 0"/><path d="m185.011719 70h33.976562c5.523438 0 10-4.476562 10-10s-4.476562-10-10-10h-33.976562c-5.523438 0-10 4.476562-10 10s4.476562 10 10 10zm0 0"/><path d="m255.011719 70h33.976562c5.523438 0 10-4.476562 10-10s-4.476562-10-10-10h-33.976562c-5.523438 0-10 4.476562-10 10s4.476562 10 10 10zm0 0"/><path d="m325.011719 70h33.976562c5.523438 0 10-4.476562 10-10s-4.476562-10-10-10h-33.976562c-5.523438 0-10 4.476562-10 10s4.476562 10 10 10zm0 0"/><path d="m115.011719 70h33.976562c5.523438 0 10-4.476562 10-10s-4.476562-10-10-10h-33.976562c-5.523438 0-10 4.476562-10 10s4.476562 10 10 10zm0 0"/><path d="m45.011719 70h33.976562c5.523438 0 10-4.476562 10-10s-4.476562-10-10-10h-33.976562c-5.523438 0-10 4.476562-10 10s4.476562 10 10 10zm0 0"/><path d="m346 153c0-5.523438-4.476562-10-10-10h-268c-5.523438 0-10 4.476562-10 10v162c0 5.523438 4.476562 10 10 10h268c5.523438 0 10-4.476562 10-10zm-20 153h-248v-143h248zm0 0"/><path d="m111.59375 252.921875c3.90625 3.90625 10.238281 3.90625 14.144531 0l46.667969-46.667969c3.90625-3.90625 3.90625-10.238281 0-14.144531s-10.238281-3.90625-14.144531 0l-46.667969 46.667969c-3.90625 3.90625-3.90625 10.238281 0 14.144531zm0 0"/><path d="m111.59375 220.5c2.652344.003906 5.199219-1.050781 7.070312-2.929688l18.386719-18.382812c3.90625-3.90625 3.90625-10.238281 0-14.144531-3.90625-3.902344-10.238281-3.902344-14.144531 0l-18.382812 18.386719c-2.859376 2.859374-3.714844 7.160156-2.167969 10.898437 1.546875 3.734375 5.195312 6.171875 9.238281 6.171875zm0 0"/></svg>