<?xml version="1.0" encoding="iso-8859-1"?>
<!-- Generator: Adobe Illustrator 19.0.0, SVG Export Plug-In . SVG Version: 6.00 Build 0)  -->
<svg version="1.1" id="Capa_1" xmlns="http://www.w3.org/2000/svg" xmlns:xlink="http://www.w3.org/1999/xlink" x="0px" y="0px"
	 viewBox="0 0 512 512" style="enable-background:new 0 0 512 512;" xml:space="preserve" width="40px" height="40px">
<g>
	<g>
		<path d="M497,224.166H360.538c-0.276-3.225-0.421-6.472-0.421-9.736c0-35.363,16.146-67.981,44.296-89.489
			c4.068-3.108,6.271-8.077,5.841-13.18c-0.431-5.102-3.434-9.632-7.965-12.016c-91.602-48.174-200.975-48.174-292.576,0
			c-4.531,2.384-7.534,6.914-7.965,12.016c-0.43,5.103,1.772,10.071,5.841,13.18c28.15,21.508,44.296,54.126,44.296,89.489
			c0,3.265-0.146,6.511-0.421,9.736H15c-8.284,0-15,6.716-15,15v194.219c0,8.284,6.716,15,15,15h482c8.284,0,15-6.716,15-15V239.166
			C512,230.882,505.284,224.166,497,224.166z M143.337,116.899c71.883-31.041,153.443-31.041,225.326,0
			c-24.729,26.23-38.547,60.701-38.547,97.531c0,10.004,1.029,19.885,3.07,29.55H300.13v-39.351c0-8.284-6.716-15-15-15
			s-15,6.716-15,15v39.351h-28.262v-39.351c0-8.284-6.716-15-15-15s-15,6.716-15,15v39.351h-33.056
			c2.042-9.665,3.072-19.546,3.072-29.55C181.884,177.6,168.066,143.129,143.337,116.899z M482,418.385H30V316.601h452V418.385z
			 M482,286.601H30v-32.435h114.695c-1.525,4.496-0.854,9.455,1.864,13.369c2.803,4.037,7.405,6.444,12.32,6.444h194.24
			c4.915,0,9.518-2.407,12.32-6.444c2.718-3.914,3.389-8.873,1.864-13.369H482V286.601z"/>
	</g>
</g>
<g>
</g>
<g>
</g>
<g>
</g>
<g>
</g>
<g>
</g>
<g>
</g>
<g>
</g>
<g>
</g>
<g>
</g>
<g>
</g>
<g>
</g>
<g>
</g>
<g>
</g>
<g>
</g>
<g>
</g>
</svg>
