<?xml version="1.0" encoding="iso-8859-1"?>
<!-- Generator: Adobe Illustrator 17.1.0, SVG Export Plug-In . SVG Version: 6.00 Build 0)  -->
<!DOCTYPE svg PUBLIC "-//W3C//DTD SVG 1.1//EN" "http://www.w3.org/Graphics/SVG/1.1/DTD/svg11.dtd">
<svg version="1.1" id="Capa_1" xmlns="http://www.w3.org/2000/svg" xmlns:xlink="http://www.w3.org/1999/xlink" x="0px" y="0px"
	 viewBox="0 0 551.578 551.578" style="enable-background:new 0 0 551.578 551.578;" xml:space="preserve" width="40px" height="40px">
<path d="M311.931,166.911c0,4.143-3.358,7.5-7.5,7.5s-7.5-3.357-7.5-7.5c0-67.816-55.172-122.988-122.988-122.988
	c-4.142,0-7.5-3.357-7.5-7.5s3.358-7.5,7.5-7.5C250.03,28.923,311.931,90.824,311.931,166.911z M173.943,289.898
	c-67.816,0-122.988-55.172-122.988-122.987c0-4.143-3.358-7.5-7.5-7.5s-7.5,3.357-7.5,7.5c0,76.087,61.901,137.987,137.988,137.987
	c4.142,0,7.5-3.357,7.5-7.5S178.085,289.898,173.943,289.898z M173.943,62.978c-4.142,0-7.5,3.357-7.5,7.5s3.358,7.5,7.5,7.5
	c49.039,0,88.934,39.896,88.934,88.934c0,4.143,3.358,7.5,7.5,7.5s7.5-3.357,7.5-7.5C277.877,109.602,231.252,62.978,173.943,62.978
	z M173.943,255.845c-49.038,0-88.934-39.896-88.934-88.934c0-4.143-3.358-7.5-7.5-7.5s-7.5,3.357-7.5,7.5
	c0,57.31,46.625,103.934,103.934,103.934c4.142,0,7.5-3.357,7.5-7.5S178.085,255.845,173.943,255.845z M234.58,166.911
	c0,33.436-27.202,60.637-60.637,60.637c-33.435,0-60.637-27.201-60.637-60.637s27.202-60.638,60.637-60.638
	C207.378,106.273,234.58,133.476,234.58,166.911z M219.58,166.911c0-25.165-20.473-45.638-45.637-45.638
	c-25.164,0-45.637,20.473-45.637,45.638c0,25.164,20.473,45.637,45.637,45.637C199.107,212.548,219.58,192.075,219.58,166.911z
	 M385.135,333.645v187.513c0,0.032-0.004,0.063-0.005,0.095c-0.002,0.147-0.012,0.294-0.022,0.44
	c-0.008,0.108-0.013,0.215-0.026,0.322c-0.014,0.121-0.035,0.24-0.055,0.359c-0.021,0.128-0.04,0.256-0.067,0.382
	c-0.021,0.095-0.048,0.188-0.073,0.283c-0.037,0.143-0.073,0.287-0.118,0.427c-0.027,0.084-0.062,0.167-0.092,0.251
	c-0.052,0.142-0.102,0.284-0.161,0.422c-0.042,0.097-0.092,0.19-0.138,0.286c-0.058,0.119-0.112,0.238-0.176,0.354
	c-0.065,0.118-0.139,0.232-0.211,0.347c-0.054,0.086-0.105,0.175-0.162,0.259c-0.087,0.127-0.183,0.249-0.278,0.372
	c-0.052,0.067-0.101,0.136-0.156,0.202c-0.097,0.116-0.202,0.226-0.306,0.336c-0.064,0.068-0.125,0.138-0.192,0.203
	c-0.094,0.093-0.195,0.18-0.295,0.268c-0.088,0.078-0.175,0.157-0.267,0.231c-0.086,0.069-0.177,0.134-0.267,0.2
	c-0.115,0.084-0.23,0.168-0.35,0.247c-0.028,0.019-0.053,0.04-0.082,0.058l-36.317,22.92c-2.445,1.543-5.561,1.543-8.006,0
	L305,530.026l-32.31,20.394c-2.446,1.544-5.561,1.543-8.006-0.001l-32.308-20.393l-32.308,20.393c-2.446,1.545-5.562,1.545-8.007,0
	l-32.307-20.393l-32.303,20.393c-2.446,1.546-5.562,1.544-8.007,0l-32.301-20.392l-32.298,20.392
	c-1.223,0.772-2.613,1.158-4.004,1.158s-2.781-0.386-4.003-1.158l-36.308-22.92c-0.026-0.017-0.049-0.036-0.075-0.053
	c-0.127-0.083-0.25-0.171-0.372-0.261c-0.083-0.062-0.168-0.121-0.248-0.186c-0.098-0.079-0.191-0.163-0.285-0.247
	c-0.094-0.083-0.189-0.166-0.278-0.253c-0.072-0.071-0.138-0.146-0.207-0.22c-0.099-0.105-0.199-0.21-0.291-0.32
	c-0.059-0.071-0.112-0.146-0.168-0.218c-0.091-0.118-0.183-0.234-0.266-0.356c-0.06-0.088-0.114-0.182-0.171-0.272
	c-0.069-0.111-0.14-0.22-0.203-0.334c-0.065-0.119-0.122-0.242-0.181-0.364c-0.044-0.092-0.092-0.182-0.133-0.275
	c-0.061-0.14-0.112-0.285-0.164-0.429c-0.03-0.082-0.063-0.162-0.089-0.245c-0.046-0.141-0.082-0.286-0.119-0.43
	c-0.024-0.093-0.051-0.186-0.072-0.279c-0.027-0.126-0.047-0.254-0.068-0.383c-0.02-0.12-0.041-0.238-0.055-0.359
	c-0.012-0.106-0.018-0.213-0.025-0.321c-0.011-0.147-0.02-0.294-0.022-0.442c0-0.032-0.005-0.063-0.005-0.094V166.911
	C7.032,74.876,81.908,0,173.943,0h203.692c92.035,0,166.911,74.876,166.911,166.911
	C544.546,256.431,473.702,329.708,385.135,333.645z M370.135,517.021v-183.2H173.943c-67.393,0-125.581-40.151-151.911-97.786
	v280.987l28.808,18.186l32.298-20.393c2.445-1.545,5.562-1.545,8.008,0l32.301,20.393l32.303-20.393
	c2.445-1.545,5.561-1.545,8.007,0l32.307,20.393l32.308-20.393c2.446-1.545,5.561-1.545,8.007,0l32.308,20.393l32.31-20.394
	c2.445-1.543,5.56-1.543,8.006,0l32.315,20.394L370.135,517.021z M529.546,166.911C529.546,83.147,461.399,15,377.635,15H243.186
	c8.128,3.711,15.986,8.087,23.497,13.116c3.442,2.305,4.364,6.963,2.06,10.405c-2.305,3.441-6.964,4.361-10.405,2.06
	C233.342,23.846,204.157,15,173.943,15C90.179,15,22.032,83.147,22.032,166.911s68.147,151.91,151.911,151.91
	c83.764,0,151.911-68.146,151.911-151.91c0-31.455-9.527-61.632-27.551-87.268c-2.382-3.389-1.567-8.066,1.822-10.449
	c3.389-2.382,8.066-1.567,10.449,1.822c19.81,28.175,30.28,61.335,30.28,95.895c0,67.393-40.151,125.58-97.787,151.91h134.568
	C461.399,318.821,529.546,250.675,529.546,166.911z M80.073,442.808H49.957c-4.142,0-7.5,3.357-7.5,7.5s3.358,7.5,7.5,7.5h30.116
	c4.142,0,7.5-3.357,7.5-7.5S84.215,442.808,80.073,442.808z M147.821,442.808h-30.116c-4.142,0-7.5,3.357-7.5,7.5s3.358,7.5,7.5,7.5
	h30.116c4.142,0,7.5-3.357,7.5-7.5S151.963,442.808,147.821,442.808z M215.569,442.808h-30.116c-4.142,0-7.5,3.357-7.5,7.5
	s3.358,7.5,7.5,7.5h30.116c4.142,0,7.5-3.357,7.5-7.5S219.711,442.808,215.569,442.808z M283.318,442.808h-30.116
	c-4.142,0-7.5,3.357-7.5,7.5s3.358,7.5,7.5,7.5h30.116c4.142,0,7.5-3.357,7.5-7.5S287.46,442.808,283.318,442.808z M351.066,442.808
	H320.95c-4.142,0-7.5,3.357-7.5,7.5s3.358,7.5,7.5,7.5h30.116c4.142,0,7.5-3.357,7.5-7.5S355.208,442.808,351.066,442.808z"/>
<g>
</g>
<g>
</g>
<g>
</g>
<g>
</g>
<g>
</g>
<g>
</g>
<g>
</g>
<g>
</g>
<g>
</g>
<g>
</g>
<g>
</g>
<g>
</g>
<g>
</g>
<g>
</g>
<g>
</g>
</svg>
