<?xml version="1.0" encoding="iso-8859-1"?>
<!-- Generator: Adobe Illustrator 19.0.0, SVG Export Plug-In . SVG Version: 6.00 Build 0)  -->
<svg version="1.1" id="Capa_1" xmlns="http://www.w3.org/2000/svg" xmlns:xlink="http://www.w3.org/1999/xlink" x="0px" y="0px"
	 viewBox="0 0 480.003 480.003" style="enable-background:new 0 0 480.003 480.003;" xml:space="preserve" width="40px" height="40px">
<g>
	<g>
		<path d="M472.691,79.315c-4.683-4.683-11.035-7.314-17.658-7.314c-1.134,0.036-2.265,0.148-3.384,0.336l-45.992-45.992
			c-2.253-2.246-5.624-2.944-8.584-1.776c-1.327-5.748-4.23-11.011-8.384-15.2c-6.013-5.981-14.143-9.347-22.624-9.368h-22.064
			c-4.418,0.003-7.997,3.588-7.994,8.006c0.001,0.857,0.139,1.709,0.41,2.522l5.512,16.568c0.578,1.682,0.143,3.547-1.12,4.8
			l-58.464,58.464c-9.764,9.605-9.894,25.307-0.289,35.071c4.179,4.249,9.749,6.85,15.689,7.329c0.175,0.317,0.375,0.62,0.6,0.904
			l38.608,38.608l-83.712,25.744c-6.236,1.932-11.904,5.36-16.512,9.984L7.313,437.377c-9.751,9.751-9.751,25.561,0,35.312
			c9.751,9.751,25.561,9.751,35.312,0l232.216-232.216c0.925-0.925,2.062-1.609,3.312-1.992l92.608-28.496
			c6.232-1.921,11.9-5.334,16.512-9.944l85.416-85.416C482.441,104.875,482.441,89.066,472.691,79.315z M388.689,54.625
			l11.312-11.312l36.688,36.688l-12.688,12.688l-36.688-36.688L388.689,54.625z M363.313,80.001l12.688-12.688l36.688,36.688
			l-12.688,12.688L363.313,80.001z M388.689,128.001l-12.688,12.688l-36.688-36.688l12.688-12.688L388.689,128.001z
			 M293.657,114.345c-3.504-3.504-3.504-9.184,0-12.688l58.464-58.456c5.557-5.524,7.493-13.726,4.992-21.152l-2.008-6.048h10.96
			c8.837,0.002,15.998,7.167,15.997,16.003c-0.001,4.241-1.686,8.309-4.685,11.309l-71.032,71.032
			C302.842,117.849,297.161,117.849,293.657,114.345z M315.313,128.001l2.344-2.344l10.344-10.344l36.688,36.688l-12.688,12.688
			L315.313,128.001z M461.377,103.313l-85.376,85.416c-2.766,2.764-6.166,4.81-9.904,5.96l-92.672,28.512
			c-3.732,1.165-7.127,3.216-9.896,5.976l-232.216,232.2c-3.504,3.504-9.184,3.504-12.688,0c-3.504-3.504-3.504-9.184,0-12.688
			l229.416-229.416c2.766-2.764,6.166-4.81,9.904-5.96l92.632-28.512c3.732-1.165,7.127-3.216,9.896-5.976l88.216-88.2
			c3.504-3.504,9.184-3.504,12.688,0C464.881,94.129,464.881,99.809,461.377,103.313L461.377,103.313z"/>
	</g>
</g>
<g>
</g>
<g>
</g>
<g>
</g>
<g>
</g>
<g>
</g>
<g>
</g>
<g>
</g>
<g>
</g>
<g>
</g>
<g>
</g>
<g>
</g>
<g>
</g>
<g>
</g>
<g>
</g>
<g>
</g>
</svg>
