<?xml version="1.0" encoding="iso-8859-1"?>
<!-- Generator: Adobe Illustrator 19.0.0, SVG Export Plug-In . SVG Version: 6.00 Build 0)  -->
<svg version="1.1" id="Layer_1" xmlns="http://www.w3.org/2000/svg" xmlns:xlink="http://www.w3.org/1999/xlink" x="0px" y="0px"
	 viewBox="0 0 512 512" style="enable-background:new 0 0 512 512;" xml:space="preserve" width="40px" height="40px">
<g>
	<g>
		<path d="M501.771,439.104c-60.636-60.636-90.126-90.125-90.607-90.606c-2.93-2.928-7.677-2.928-10.606,0
			c-2.929,2.93-2.929,7.677,0,10.606l57.864,57.862l-27.963,27.964L280.979,295.451l27.964-27.961l74.615,74.615
			c2.93,2.928,7.677,2.928,10.606,0c2.929-2.93,2.929-7.677,0-10.606l-42.721-42.721l52.319-58.083
			c2.772-3.077,2.525-7.818-0.553-10.591c-3.077-2.773-7.819-2.524-10.591,0.553l-51.796,57.501
			c-57.693-57.693-56.878-58.119-64.437-61.88c-7.651-4.261-20.68-5.52-31.853,0.465c-13.66-4.793-31.298-10.98-44.511-15.616
			L333.13,81.224l97.375,97.376l-21.122,23.449c-2.772,3.077-2.525,7.818,0.553,10.591c3.076,2.772,7.818,2.524,10.591-0.553
			l51.705-57.399c5.95-6.604,5.688-16.702-0.599-22.99l-15.332-15.332L506.1,66.567c7.709-7.71,7.708-20.255,0-27.962l-32.54-32.54
			c-7.726-7.728-20.233-7.728-27.962,0.001L395.8,55.865l-15.77-15.77c-6.289-6.285-16.389-6.546-22.988-0.597
			c-1.883,1.696-157.267,141.664-173.147,155.968l-15.613-5.479l-18.615-18.614l36.798-36.799c9.072-9.07,9.071-23.746,0.001-32.816
			c-3.864-3.864-59.909-59.907-81.429-81.426c-9.065-9.069-23.743-9.071-32.812-0.002L34.57,57.985C18.671,49.975,0,61.645,0,79.304
			c0.001,6.374,2.483,12.365,6.988,16.871c141.932,141.931,132.495,133.073,136.785,135.433
			c-5.022,4.525-126.397,113.86-138.256,124.542c-7.101,6.409-7.37,17.465-0.626,24.217L131.365,506.84
			c6.838,6.83,17.878,6.401,24.219-0.635c5.46-6.062,140.671-156.159,149.251-165.685c9.368,9.368,143.943,143.942,147.76,147.759
			c6.565,6.566,15.295,10.187,24.59,10.187C507.936,498.467,523.726,461.057,501.771,439.104z M459.582,15.273
			c2.732,0,0.733-1.241,35.912,33.938c1.861,1.86,1.86,4.889-0.001,6.75l-25.934,25.935L430.27,42.607
			C458.292,14.585,456.896,15.273,459.582,15.273z M419.665,53.213l39.289,39.289l-13.259,13.257l-39.288-39.288L419.665,53.213z
			 M367.082,50.641c1.658-1.492-4.183-6.469,93.944,91.662c0.642,0.642,0.669,1.672,0.061,2.346l-20.529,22.79l-96.268-96.267
			L367.082,50.641z M241.602,243.242c2.61-12.162,15.875-18.972,27.303-13.893c5.159,2.282,6.361,4.465,29.432,27.535
			l-27.964,27.962C246.618,261.09,238.743,256.585,241.602,243.242z M178.264,118.168c0,4.551,0.958,2.438-39.203,42.601
			l-14.378-14.377l42.602-42.6C176.262,112.769,178.264,113.891,178.264,118.168z M156.677,93.185l-42.601,42.6L98.541,120.25
			l42.602-42.6L156.677,93.185z M115.001,51.512l15.535,15.533l-42.601,42.6L72.401,94.111L115.001,51.512z M88.631,28.536
			c4.298,0,5.224,1.828,15.764,12.368l-42.601,42.6L46.03,67.74C86.23,27.541,84.102,28.536,88.631,28.536z M14.999,79.304
			c0-7.838,9.531-11.854,15.12-6.263C168.484,211.406,159.316,202.74,161.703,203.577c41.635,14.609,21.962,7.707,70.224,24.64
			c-3.4,5.1-5.287,10.953-5.701,16.774c-0.002-0.001-65.835-23.1-65.837-23.1c-8.648-3.035-9.598-3.128-11.399-4.929
			C7.46,75.434,15.001,84.547,14.999,79.304z M192.175,443.176l-19.504-19.506c-2.93-2.928-7.677-2.928-10.606,0
			c-2.929,2.93-2.929,7.677,0,10.606l20.059,20.058c-38.803,43.075-38.359,43.697-40.154,41.896l-18.76-18.76l14.619-14.619
			c2.929-2.93,2.929-7.677,0-10.606c-2.93-2.928-7.677-2.928-10.606,0l-14.619,14.619l-15.509-15.509l14.619-14.619
			c2.929-2.93,2.929-7.677,0-10.607c-2.93-2.928-7.677-2.928-10.606,0l-14.619,14.619l-15.507-15.507l14.619-14.619
			c2.929-2.93,2.929-7.677,0-10.606c-2.93-2.928-7.677-2.928-10.606,0l-14.619,14.619l-15.51-15.51l14.62-14.621
			c2.929-2.929,2.929-7.677-0.001-10.605c-2.928-2.928-7.676-2.929-10.605,0.001l-14.619,14.62
			c-20.285-20.283-19.288-18.97-19.262-20.011c0.029-1.047-2.848,1.85,42.395-38.904l88.588,88.59c2.929,2.927,7.676,2.929,10.606,0
			c2.929-2.93,2.929-7.677,0-10.606l-88.033-88.035l91.069-82.035l69.7,24.455c3.975,8.631,5.874,8.909,64.89,67.926
			L192.175,443.176z M477.185,483.468c-5.281,0-10.246-2.058-13.982-5.795l-22.138-22.138l27.963-27.964l22.139,22.139
			C503.663,462.208,494.656,483.468,477.185,483.468z"/>
	</g>
</g>
<g>
</g>
<g>
</g>
<g>
</g>
<g>
</g>
<g>
</g>
<g>
</g>
<g>
</g>
<g>
</g>
<g>
</g>
<g>
</g>
<g>
</g>
<g>
</g>
<g>
</g>
<g>
</g>
<g>
</g>
</svg>
