<?xml version="1.0" encoding="iso-8859-1"?>
<!-- Generator: Adobe Illustrator 19.0.0, SVG Export Plug-In . SVG Version: 6.00 Build 0)  -->
<svg version="1.1" id="Capa_1" xmlns="http://www.w3.org/2000/svg" xmlns:xlink="http://www.w3.org/1999/xlink" x="0px" y="0px"
	 viewBox="0 0 496 496" style="enable-background:new 0 0 496 496;" xml:space="preserve" width="40px" height="40px">
<g>
	<g>
		<g>
			<rect x="248" y="416" width="16" height="16"/>
			<path d="M496,328c0-13.072-6.304-24.696-16.024-32c9.72-7.304,16.024-18.928,16.024-32c0-22.056-17.944-40-40-40H232
				c-39.704,0-72,32.304-72,72c0,27.864,15.944,52.04,39.168,64C175.944,371.96,160,396.136,160,424c0,39.696,32.296,72,72,72h224
				c22.056,0,40-17.944,40-40c0-13.072-6.304-24.696-16.024-32c9.72-7.304,16.024-18.928,16.024-32c0-13.128-6.448-24.704-16.248-32
				C489.552,352.704,496,341.128,496,328z M480,392c0,13.232-10.768,24-24,24H280v16h176c13.232,0,24,10.768,24,24s-10.768,24-24,24
				H232c-30.872,0-56-25.12-56-56s25.128-56,56-56h224C469.232,368,480,378.768,480,392z M456,352H232c-30.872,0-56-25.12-56-56
				s25.128-56,56-56h224c13.232,0,24,10.768,24,24s-10.768,24-24,24H280v16h176c13.232,0,24,10.768,24,24S469.232,352,456,352z"/>
			<rect x="248" y="288" width="16" height="16"/>
			<path d="M16,456c0-13.232,10.768-24,24-24h104v-16H40c-9.04,0-17.296,3.128-24,8.208V392c0-13.232,10.768-24,24-24h16v-16H40
				c-9.04,0-17.296,3.128-24,8.208V88c0-13.232,10.768-24,24-24h16V48H40c-9.04,0-17.296,3.128-24,8.208V40
				c0-13.232,10.768-24,24-24h272c13.232,0,24,10.768,24,24v16.208C329.296,51.128,321.04,48,312,48h-16v16h16
				c13.232,0,24,10.768,24,24v120h16V40c0-22.056-17.944-40-40-40H40C17.944,0,0,17.944,0,40v416c0,22.056,17.944,40,40,40h128v-16
				H40C26.768,480,16,469.232,16,456z"/>
			<rect x="32" y="448" width="16" height="16"/>
			<rect x="64" y="448" width="88" height="16"/>
			<rect x="240" y="48" width="32" height="16"/>
			<rect x="184" y="48" width="32" height="16"/>
			<rect x="136" y="48" width="32" height="16"/>
			<rect x="80" y="48" width="32" height="16"/>
			<rect x="136" y="352" width="32" height="16"/>
			<rect x="80" y="352" width="32" height="16"/>
		</g>
	</g>
</g>
<g>
</g>
<g>
</g>
<g>
</g>
<g>
</g>
<g>
</g>
<g>
</g>
<g>
</g>
<g>
</g>
<g>
</g>
<g>
</g>
<g>
</g>
<g>
</g>
<g>
</g>
<g>
</g>
<g>
</g>
</svg>
