<?xml version="1.0"?>
<svg xmlns="http://www.w3.org/2000/svg" xmlns:xlink="http://www.w3.org/1999/xlink" version="1.1" id="Capa_1" x="0px" y="0px" viewBox="0 0 480 480" style="enable-background:new 0 0 480 480;" xml:space="preserve" class="" width="40px" height="40px"><g transform="matrix(0.904382 0 0 0.904382 22.9483 22.9483)"><g>
	<g>
		<g>
			<path d="M240,416c56.65-0.018,108.026-33.25,131.272-84.912c16.955-37.548,16.955-80.572,0-118.12     c-32.602-72.539-117.837-104.914-190.376-72.312c-72.539,32.602-104.914,117.837-72.312,190.376     C131.834,382.763,183.284,416.028,240,416z M123.241,219.512C143.904,173.553,189.61,143.994,240,144     c50.386,0.036,96.07,29.611,116.728,75.568c15.046,33.355,15.046,71.565,0,104.92c-28.988,64.476-104.756,93.244-169.231,64.255     C123.021,359.755,94.253,283.988,123.241,219.512z" data-original="#000000" class="active-path" fill="#000000"/>
			<path d="M416,0H64C50.745,0,40,10.745,40,24v432c0,13.255,10.745,24,24,24h352c13.255,0,24-10.745,24-24V24     C440,10.745,429.255,0,416,0z M424,456c0,4.418-3.582,8-8,8H64c-4.418,0-8-3.582-8-8v-8h368V456z M424,432H56V112h368V432z      M424,96H56V24c0-4.418,3.582-8,8-8h352c4.418,0,8,3.582,8,8V96z" data-original="#000000" class="active-path" fill="#000000"/>
			<path d="M240,384c3.616,0,7.2-0.232,10.752-0.576c10.789-0.996,21.371-3.587,31.4-7.688c0.8-0.32,1.6-0.592,2.4-0.928     s1.76-0.8,2.64-1.256c1.384-0.64,2.784-1.256,4.144-1.952c54.998-28.356,76.596-95.928,48.24-150.927     c-0.153-0.297-0.308-0.594-0.464-0.889c-12.851-24.414-34.271-43.219-60.144-52.8c-0.48-0.176-0.936-0.384-1.416-0.552     c-8.646-3.044-17.633-5.014-26.76-5.864C247.2,160.232,243.616,160,240,160c-61.856,0-112,50.144-112,112S178.144,384,240,384z      M328.728,235.552v0.056c0.176,0.432,0.408,0.848,0.584,1.28c0.416,1.064,0.8,2.144,1.144,3.2c0.8,2.296,1.552,4.608,2.184,6.952     c0.331,1.211,0.635,2.427,0.912,3.648c0.544,2.4,0.968,4.8,1.32,7.2c0.168,1.112,0.368,2.216,0.488,3.336     c0.853,7.129,0.853,14.335,0,21.464c-0.12,1.112-0.32,2.208-0.48,3.312c-0.36,2.4-0.8,4.864-1.328,7.256     c-0.28,1.224-0.584,2.4-0.904,3.632c-0.64,2.4-1.376,4.68-2.2,6.984c-0.376,1.064-0.72,2.136-1.136,3.2     c-0.176,0.432-0.408,0.848-0.584,1.28c-20.103-17.24-22.424-47.513-5.184-67.616C325.137,238.878,326.87,237.145,328.728,235.552     z M158.601,221.056C176.157,193.014,206.916,175.989,240,176c33.075-0.041,63.828,16.995,81.336,45.056     c-28.136,21.293-33.683,61.362-12.39,89.498c3.541,4.68,7.711,8.849,12.39,12.39c-28.136,44.938-87.374,58.559-132.312,30.424     C144.086,325.232,130.465,265.994,158.601,221.056z" data-original="#000000" class="active-path" fill="#000000"/>
			<path d="M176,272c0.04-35.33,28.67-63.96,64-64c4.418,0,8-3.582,8-8s-3.582-8-8-8c-44.163,0.048-79.951,35.837-80,80     c0,4.418,3.582,8,8,8S176,276.418,176,272z" data-original="#000000" class="active-path" fill="#000000"/>
			<path d="M336,40h-32c-4.418,0-8,3.582-8,8s3.582,8,8,8h32c4.418,0,8-3.582,8-8S340.418,40,336,40z" data-original="#000000" class="active-path" fill="#000000"/>
			<path d="M336,64h-32c-4.418,0-8,3.582-8,8s3.582,8,8,8h32c4.418,0,8-3.582,8-8S340.418,64,336,64z" data-original="#000000" class="active-path" fill="#000000"/>
			<path d="M184,40h-32c-4.418,0-8,3.582-8,8s3.582,8,8,8h32c4.418,0,8-3.582,8-8S188.418,40,184,40z" data-original="#000000" class="active-path" fill="#000000"/>
			<path d="M184,64h-32c-4.418,0-8,3.582-8,8s3.582,8,8,8h32c4.418,0,8-3.582,8-8S188.418,64,184,64z" data-original="#000000" class="active-path" fill="#000000"/>
			<path d="M400,40h-32c-4.418,0-8,3.582-8,8s3.582,8,8,8h32c4.418,0,8-3.582,8-8S404.418,40,400,40z" data-original="#000000" class="active-path" fill="#000000"/>
			<path d="M400,64h-32c-4.418,0-8,3.582-8,8s3.582,8,8,8h32c4.418,0,8-3.582,8-8S404.418,64,400,64z" data-original="#000000" class="active-path" fill="#000000"/>
			<path d="M256,24c-17.673,0-32,14.327-32,32s14.327,32,32,32c17.673,0,32-14.327,32-32S273.673,24,256,24z M256,72     c-8.837,0-16-7.163-16-16s7.163-16,16-16s16,7.163,16,16S264.837,72,256,72z" data-original="#000000" class="active-path" fill="#000000"/>
			<path d="M104,24c-17.673,0-32,14.327-32,32s14.327,32,32,32s32-14.327,32-32S121.673,24,104,24z M104,72c-8.837,0-16-7.163-16-16     s7.163-16,16-16s16,7.163,16,16S112.837,72,104,72z" data-original="#000000" class="active-path" fill="#000000"/>
		</g>
	</g>
</g></g> </svg>
